<svg xmlns="http://www.w3.org/2000/svg" xmlns:xlink="http://www.w3.org/1999/xlink" width="500" zoomAndPan="magnify" viewBox="0 0 375 374.999991" height="500" preserveAspectRatio="xMidYMid meet" version="1.0"><defs><g/><clipPath id="e4d02bb671"><path d="M 119.839844 157 L 131 157 L 131 175 L 119.839844 175 Z M 119.839844 157 " clip-rule="nonzero"/></clipPath><clipPath id="c01f68d182"><path d="M 130 103.351562 L 260 103.351562 L 260 240.601562 L 130 240.601562 Z M 130 103.351562 " clip-rule="nonzero"/></clipPath><clipPath id="5469f7ffa6"><path d="M 259 158 L 270.589844 158 L 270.589844 176 L 259 176 Z M 259 158 " clip-rule="nonzero"/></clipPath><clipPath id="bf96dcc04c"><path d="M 196.109375 180.222656 L 223.394531 180.222656 L 223.394531 206.085938 L 196.109375 206.085938 Z M 196.109375 180.222656 " clip-rule="nonzero"/></clipPath><clipPath id="d92f543dae"><path d="M 166.394531 180 L 194 180 L 194 207 L 166.394531 207 Z M 166.394531 180 " clip-rule="nonzero"/></clipPath><clipPath id="0685725f97"><path d="M 167.574219 200.390625 L 222.453125 200.390625 L 222.453125 207.625 L 167.574219 207.625 Z M 167.574219 200.390625 " clip-rule="nonzero"/></clipPath><clipPath id="48c7571012"><path d="M 156.574219 137.300781 L 233.824219 137.300781 L 233.824219 167.300781 L 156.574219 167.300781 Z M 156.574219 137.300781 " clip-rule="nonzero"/></clipPath></defs><path fill="#0e543d" d="M 173.886719 224.453125 C 172.894531 223.6875 171.996094 223.191406 171.003906 222.832031 C 170.058594 222.46875 169.023438 222.289062 167.988281 222.246094 C 165.914062 222.15625 163.617188 222.558594 161.410156 223.054688 C 159.203125 223.597656 157.132812 224.226562 155.601562 224.765625 C 154.070312 225.261719 153.035156 225.667969 153.035156 225.667969 C 153.035156 225.667969 154.023438 226.253906 155.601562 226.929688 C 157.175781 227.605469 159.382812 228.371094 161.769531 228.777344 C 164.15625 229.179688 166.769531 229.226562 169.023438 228.59375 C 171.320312 228.054688 173.257812 226.660156 173.886719 224.453125 Z M 173.886719 224.453125 " fill-opacity="1" fill-rule="nonzero"/><path fill="#0e543d" d="M 167.175781 214.769531 C 168.03125 216.703125 169.246094 218.550781 170.867188 219.769531 C 171.679688 220.351562 172.582031 220.847656 173.570312 221.027344 C 174.515625 221.207031 175.597656 221.164062 176.589844 220.757812 C 176.632812 218.460938 176.003906 216.660156 175.058594 215.082031 C 174.066406 213.507812 172.671875 212.15625 171.230469 210.984375 C 169.789062 209.8125 168.300781 208.824219 167.21875 208.148438 C 166.09375 207.472656 165.328125 207.066406 165.328125 207.066406 C 165.328125 207.066406 165.328125 207.292969 165.375 207.742188 C 165.417969 208.148438 165.507812 208.777344 165.597656 209.5 C 165.871094 210.894531 166.320312 212.832031 167.175781 214.769531 Z M 167.175781 214.769531 " fill-opacity="1" fill-rule="nonzero"/><path fill="#0e543d" d="M 151.457031 219.859375 C 153.664062 219.769531 155.601562 218.910156 156.953125 217.066406 C 155.871094 215.128906 154.203125 214.046875 152.222656 213.460938 C 150.242188 212.875 147.945312 212.695312 145.691406 212.605469 C 143.441406 212.5625 141.1875 212.605469 139.519531 212.605469 C 137.808594 212.652344 136.730469 212.652344 136.730469 212.652344 C 136.730469 212.652344 136.953125 212.875 137.316406 213.28125 C 137.71875 213.640625 138.261719 214.183594 138.980469 214.769531 C 140.421875 215.9375 142.402344 217.289062 144.65625 218.328125 C 146.816406 219.316406 149.25 219.949219 151.457031 219.859375 Z M 151.457031 219.859375 " fill-opacity="1" fill-rule="nonzero"/><path fill="#0e543d" d="M 155.601562 211.210938 C 156.863281 212.785156 158.574219 213.824219 160.734375 213.730469 C 161.636719 211.617188 161.457031 209.632812 160.871094 207.789062 C 160.285156 205.941406 159.203125 204.273438 158.167969 202.789062 C 157.085938 201.300781 156.003906 200.085938 155.195312 199.183594 C 154.789062 198.734375 154.472656 198.375 154.25 198.105469 C 154.023438 197.832031 153.890625 197.699219 153.890625 197.699219 C 153.890625 197.699219 153.800781 197.921875 153.707031 198.328125 C 153.617188 198.734375 153.484375 199.320312 153.347656 200.039062 C 153.125 201.480469 153.035156 203.464844 153.304688 205.488281 C 153.617188 207.515625 154.382812 209.632812 155.601562 211.210938 Z M 155.601562 211.210938 " fill-opacity="1" fill-rule="nonzero"/><path fill="#0e543d" d="M 128.800781 195.492188 C 127.226562 194.996094 126.234375 194.726562 126.234375 194.726562 C 126.234375 194.726562 126.324219 194.996094 126.503906 195.402344 C 126.730469 195.808594 127.046875 196.4375 127.40625 197.15625 C 127.8125 197.878906 128.304688 198.6875 128.847656 199.589844 C 129.117188 200.039062 129.433594 200.492188 129.746094 200.894531 L 130.019531 201.257812 L 130.332031 201.660156 C 130.558594 201.933594 130.785156 202.203125 131.007812 202.472656 C 132.808594 204.632812 135.0625 206.300781 137.269531 206.976562 C 139.476562 207.695312 141.59375 207.472656 143.441406 206.074219 C 142.945312 203.867188 141.683594 202.382812 140.015625 201.078125 C 139.613281 200.761719 139.160156 200.445312 138.710938 200.128906 C 138.261719 199.816406 137.765625 199.546875 137.269531 199.230469 C 136.773438 198.914062 136.277344 198.644531 135.738281 198.328125 C 135.242188 198.058594 134.746094 197.832031 134.25 197.5625 C 132.359375 196.707031 130.332031 195.988281 128.800781 195.492188 Z M 128.800781 195.492188 " fill-opacity="1" fill-rule="nonzero"/><path fill="#0e543d" d="M 144.023438 199.363281 C 144.609375 201.257812 145.960938 202.789062 148.035156 203.285156 C 149.476562 201.527344 149.925781 199.589844 150.0625 197.742188 C 150.152344 195.898438 149.925781 194.183594 149.746094 192.742188 C 149.699219 192.113281 149.429688 191.078125 149.203125 190.265625 C 148.980469 189.410156 148.710938 188.691406 148.484375 188.058594 C 148.257812 187.429688 148.035156 186.933594 147.898438 186.574219 C 147.761719 186.214844 147.671875 185.988281 147.671875 185.988281 C 147.671875 185.988281 147.539062 186.214844 147.269531 186.574219 C 147.042969 186.933594 146.726562 187.472656 146.367188 188.148438 C 145.691406 189.457031 144.835938 191.300781 144.296875 193.328125 C 144.160156 193.824219 144.023438 194.367188 143.933594 194.90625 C 143.84375 195.402344 143.753906 195.898438 143.710938 196.390625 C 143.664062 196.886719 143.710938 197.382812 143.753906 197.921875 C 143.753906 198.417969 143.84375 198.914062 144.023438 199.363281 Z M 144.023438 199.363281 " fill-opacity="1" fill-rule="nonzero"/><path fill="#0e543d" d="M 126.414062 187.789062 C 126.773438 188.238281 127.179688 188.601562 127.632812 188.960938 C 128.035156 189.320312 128.488281 189.636719 128.9375 189.953125 C 130.738281 191.121094 132.765625 191.617188 134.925781 190.941406 C 135.109375 189.863281 135.015625 188.871094 134.746094 187.925781 C 134.613281 187.472656 134.386719 187.023438 134.160156 186.574219 C 133.9375 186.125 133.621094 185.71875 133.351562 185.3125 C 132.179688 183.691406 130.378906 182.25 128.53125 181.035156 C 126.773438 179.773438 124.882812 178.691406 123.441406 177.882812 C 122 177.117188 121.054688 176.621094 121.054688 176.621094 C 121.054688 176.621094 121.101562 176.890625 121.191406 177.386719 C 121.324219 177.835938 121.503906 178.511719 121.777344 179.320312 C 122.316406 180.898438 123.082031 183.058594 124.34375 184.996094 C 124.972656 185.988281 125.648438 186.933594 126.414062 187.789062 Z M 126.414062 187.789062 " fill-opacity="1" fill-rule="nonzero"/><path fill="#0e543d" d="M 138.214844 186.980469 C 138.621094 187.835938 139.25 188.601562 140.152344 189.1875 C 142.132812 188.058594 143.257812 186.347656 143.84375 184.5 C 143.980469 184.050781 144.117188 183.554688 144.207031 183.105469 C 144.25 182.878906 144.296875 182.609375 144.296875 182.386719 C 144.339844 182.160156 144.386719 181.890625 144.386719 181.664062 C 144.519531 180.671875 144.519531 179.726562 144.519531 178.78125 C 144.386719 176.933594 144.296875 175.132812 144.023438 173.871094 C 143.933594 173.242188 143.800781 172.703125 143.710938 172.339844 C 143.664062 171.980469 143.621094 171.753906 143.621094 171.753906 C 143.621094 171.753906 143.441406 171.9375 143.125 172.25 C 142.808594 172.566406 142.402344 173.015625 141.953125 173.558594 C 141.007812 174.683594 139.882812 176.304688 138.9375 178.195312 C 138.035156 180.089844 137.449219 182.160156 137.496094 184.1875 C 137.496094 184.683594 137.585938 185.175781 137.675781 185.628906 C 137.855469 186.078125 137.988281 186.527344 138.214844 186.980469 Z M 138.214844 186.980469 " fill-opacity="1" fill-rule="nonzero"/><g clip-path="url(#e4d02bb671)"><path fill="#0e543d" d="M 122.585938 169.820312 C 122.855469 170.3125 123.171875 170.808594 123.488281 171.261719 C 123.847656 171.710938 124.207031 172.117188 124.613281 172.476562 C 126.191406 174.007812 128.035156 174.863281 130.332031 174.636719 C 130.738281 173.601562 130.828125 172.613281 130.738281 171.664062 C 130.695312 171.171875 130.558594 170.71875 130.421875 170.269531 C 130.289062 169.820312 130.109375 169.324219 129.929688 168.875 C 129.523438 167.972656 128.9375 167.070312 128.261719 166.171875 C 127.902344 165.71875 127.585938 165.316406 127.226562 164.863281 C 126.867188 164.460938 126.503906 164.007812 126.144531 163.601562 C 124.660156 161.980469 123.035156 160.449219 121.867188 159.371094 C 120.695312 158.242188 119.882812 157.566406 119.882812 157.566406 C 119.882812 157.566406 119.839844 158.695312 119.972656 160.40625 C 120.019531 161.261719 120.199219 162.253906 120.378906 163.289062 C 120.46875 163.828125 120.605469 164.367188 120.738281 164.910156 C 120.875 165.449219 121.011719 166.035156 121.234375 166.574219 C 121.550781 167.703125 122.046875 168.78125 122.585938 169.820312 Z M 122.585938 169.820312 " fill-opacity="1" fill-rule="nonzero"/></g><path fill="#0e543d" d="M 135.738281 173.421875 C 137.898438 172.65625 139.339844 171.261719 140.285156 169.59375 C 140.511719 169.1875 140.738281 168.738281 140.917969 168.332031 C 141.144531 167.882812 141.324219 167.433594 141.457031 166.980469 C 141.773438 166.082031 142 165.179688 142.132812 164.277344 C 142.3125 163.378906 142.492188 162.523438 142.585938 161.710938 C 142.628906 161.304688 142.675781 160.945312 142.675781 160.539062 C 142.71875 160.179688 142.71875 159.820312 142.765625 159.550781 C 142.898438 158.289062 142.898438 157.476562 142.898438 157.476562 C 142.898438 157.476562 142.042969 157.929688 140.871094 158.785156 C 140.558594 159.007812 140.242188 159.234375 139.925781 159.503906 C 139.566406 159.773438 139.25 160.046875 138.9375 160.359375 C 138.261719 160.992188 137.585938 161.710938 136.910156 162.523438 C 136.59375 162.929688 136.277344 163.332031 135.964844 163.785156 C 135.828125 164.007812 135.648438 164.234375 135.511719 164.460938 C 135.378906 164.683594 135.289062 164.910156 135.152344 165.136719 C 134.703125 166.035156 134.34375 167.027344 134.160156 168.015625 C 134.070312 168.511719 134.027344 169.007812 134.027344 169.457031 C 134.070312 169.953125 134.117188 170.40625 134.25 170.855469 C 134.523438 171.84375 134.972656 172.703125 135.738281 173.421875 Z M 135.738281 173.421875 " fill-opacity="1" fill-rule="nonzero"/><path fill="#0e543d" d="M 127.855469 146.082031 C 127.359375 145.09375 126.820312 144.144531 126.28125 143.289062 C 125.738281 142.390625 125.242188 141.578125 124.839844 140.902344 C 123.984375 139.550781 123.351562 138.652344 123.351562 138.652344 C 123.351562 138.652344 123.035156 139.734375 122.675781 141.398438 C 122.542969 142.253906 122.453125 143.246094 122.363281 144.328125 C 122.316406 144.867188 122.269531 145.40625 122.269531 145.992188 C 122.269531 146.578125 122.316406 147.164062 122.363281 147.75 C 122.453125 148.921875 122.632812 150.089844 122.902344 151.21875 C 123.21875 152.34375 123.667969 153.378906 124.207031 154.324219 C 125.289062 156.171875 127 157.476562 129.253906 157.792969 C 129.566406 157.34375 129.746094 156.894531 129.929688 156.398438 C 130.109375 155.945312 130.242188 155.453125 130.289062 155 C 130.421875 154.054688 130.378906 153.0625 130.152344 152.074219 C 129.972656 151.082031 129.65625 150.089844 129.207031 149.101562 C 128.890625 148.109375 128.351562 147.074219 127.855469 146.082031 Z M 127.855469 146.082031 " fill-opacity="1" fill-rule="nonzero"/><path fill="#0e543d" d="M 140.105469 154.730469 C 140.78125 154.054688 141.367188 153.335938 141.863281 152.523438 C 142.402344 151.757812 142.855469 150.949219 143.257812 150.136719 C 143.441406 149.730469 143.621094 149.324219 143.800781 148.964844 C 143.980469 148.558594 144.160156 148.199219 144.296875 147.839844 C 144.609375 147.117188 144.835938 146.445312 145.015625 145.859375 C 145.464844 144.6875 145.648438 143.921875 145.648438 143.921875 C 145.648438 143.921875 144.699219 144.144531 143.351562 144.640625 C 141.953125 145.136719 140.242188 145.992188 138.574219 147.210938 C 138.171875 147.523438 137.71875 147.839844 137.359375 148.199219 C 137 148.558594 136.640625 148.921875 136.277344 149.28125 C 135.601562 150.046875 134.972656 150.902344 134.566406 151.757812 C 134.207031 152.660156 133.980469 153.605469 133.980469 154.503906 C 133.980469 154.957031 134.027344 155.453125 134.160156 155.902344 C 134.296875 156.351562 134.523438 156.847656 134.792969 157.253906 C 137.042969 157.117188 138.710938 156.082031 140.105469 154.730469 Z M 140.105469 154.730469 " fill-opacity="1" fill-rule="nonzero"/><path fill="#0e543d" d="M 133.441406 140.136719 C 133.757812 139.734375 133.980469 139.328125 134.160156 138.875 C 134.34375 138.425781 134.476562 137.976562 134.566406 137.527344 C 134.65625 137.074219 134.703125 136.578125 134.746094 136.085938 C 134.835938 135.09375 134.746094 134.058594 134.566406 132.976562 C 134.386719 131.894531 134.207031 130.816406 133.9375 129.777344 C 133.394531 127.617188 132.808594 125.589844 132.269531 124.058594 C 131.730469 122.527344 131.371094 121.535156 131.371094 121.535156 C 131.371094 121.535156 131.234375 121.761719 131.007812 122.210938 C 130.785156 122.664062 130.46875 123.25 130.152344 124.015625 C 129.433594 125.5 128.710938 127.660156 128.261719 129.960938 C 128.082031 131.128906 127.945312 132.300781 127.945312 133.425781 C 127.945312 134.011719 127.992188 134.554688 128.082031 135.136719 C 128.171875 135.679688 128.261719 136.21875 128.441406 136.761719 C 128.757812 137.796875 129.207031 138.695312 129.882812 139.507812 C 130.558594 140.273438 131.414062 140.949219 132.449219 141.355469 C 132.855469 140.902344 133.171875 140.542969 133.441406 140.136719 Z M 133.441406 140.136719 " fill-opacity="1" fill-rule="nonzero"/><path fill="#0e543d" d="M 151.367188 131.941406 C 151.546875 131.625 151.683594 131.445312 151.683594 131.445312 C 151.683594 131.445312 151.457031 131.445312 151.007812 131.445312 C 150.554688 131.445312 149.96875 131.492188 149.25 131.582031 C 148.527344 131.671875 147.671875 131.804688 146.773438 132.03125 C 146.324219 132.121094 145.828125 132.257812 145.375 132.390625 C 144.925781 132.527344 144.429688 132.707031 143.980469 132.886719 C 143.035156 133.246094 142.089844 133.699219 141.234375 134.28125 C 140.378906 134.867188 139.613281 135.5 138.980469 136.265625 C 138.664062 136.625 138.394531 137.03125 138.214844 137.4375 C 137.988281 137.839844 137.855469 138.292969 137.71875 138.742188 C 137.585938 139.191406 137.539062 139.640625 137.539062 140.136719 C 137.585938 140.632812 137.675781 141.128906 137.808594 141.625 C 138.9375 141.804688 139.972656 141.757812 140.917969 141.535156 C 141.863281 141.308594 142.765625 140.949219 143.621094 140.5 C 144.023438 140.273438 144.429688 140.003906 144.789062 139.734375 C 144.972656 139.597656 145.152344 139.460938 145.332031 139.28125 C 145.511719 139.148438 145.691406 138.96875 145.871094 138.832031 C 146.59375 138.203125 147.222656 137.570312 147.761719 136.851562 C 148.347656 136.175781 148.890625 135.5 149.339844 134.867188 C 149.476562 134.6875 149.566406 134.554688 149.65625 134.371094 C 149.789062 134.238281 149.878906 134.058594 149.96875 133.921875 C 150.195312 133.605469 150.375 133.335938 150.554688 133.113281 C 150.917969 132.707031 151.1875 132.257812 151.367188 131.941406 Z M 151.367188 131.941406 " fill-opacity="1" fill-rule="nonzero"/><path fill="#0e543d" d="M 139.613281 126.222656 C 140.601562 125.726562 141.324219 125.09375 141.863281 124.328125 C 142.449219 123.609375 142.855469 122.707031 143.125 121.761719 C 143.710938 119.871094 143.800781 117.617188 143.800781 115.457031 C 143.800781 114.914062 143.753906 114.375 143.710938 113.835938 C 143.710938 113.292969 143.664062 112.800781 143.621094 112.304688 C 143.53125 111.3125 143.441406 110.367188 143.351562 109.554688 C 143.167969 107.980469 142.988281 106.898438 142.988281 106.898438 C 142.988281 106.898438 142.808594 107.125 142.492188 107.4375 C 142.179688 107.800781 141.726562 108.296875 141.277344 108.96875 C 140.78125 109.644531 140.242188 110.410156 139.703125 111.3125 C 139.160156 112.214844 138.621094 113.203125 138.171875 114.242188 C 137.71875 115.320312 137.359375 116.402344 137.089844 117.484375 C 136.863281 118.609375 136.730469 119.691406 136.773438 120.769531 C 136.953125 122.933594 137.808594 124.871094 139.613281 126.222656 Z M 139.613281 126.222656 " fill-opacity="1" fill-rule="nonzero"/><path fill="#0e543d" d="M 155.464844 125.09375 C 156.1875 124.554688 156.90625 124.015625 157.492188 123.472656 C 158.078125 122.933594 158.664062 122.4375 159.113281 121.988281 C 159.5625 121.535156 159.925781 121.175781 160.195312 120.90625 C 160.464844 120.636719 160.601562 120.5 160.601562 120.5 C 160.601562 120.5 159.652344 120.277344 158.167969 120.140625 C 157.445312 120.050781 156.589844 120.050781 155.644531 120.050781 C 154.699219 120.050781 153.707031 120.09375 152.71875 120.277344 C 150.691406 120.589844 148.664062 121.265625 147.089844 122.4375 C 146.324219 123.023438 145.691406 123.742188 145.242188 124.554688 C 144.835938 125.363281 144.609375 126.3125 144.65625 127.347656 C 146.773438 128.246094 148.753906 128.203125 150.554688 127.660156 C 151.457031 127.390625 152.359375 127.03125 153.167969 126.582031 C 153.980469 126.128906 154.746094 125.636719 155.464844 125.09375 Z M 155.464844 125.09375 " fill-opacity="1" fill-rule="nonzero"/><g clip-path="url(#c01f68d182)"><path fill="#0e543d" d="M 151.410156 210.894531 C 157.402344 215.847656 164.652344 219.226562 171.816406 222.109375 C 177.667969 224.453125 185.144531 228.324219 192.804688 231.929688 C 185.910156 234.046875 179.15625 235.800781 173.707031 236.746094 C 172.984375 236.882812 176.679688 240.574219 177.355469 240.394531 C 183.660156 238.503906 190.101562 236.160156 196.40625 233.640625 C 203.296875 236.792969 210.144531 239.449219 215.773438 240.394531 C 216.492188 240.53125 218.65625 236.746094 217.980469 236.613281 C 212.664062 235.710938 206.496094 234.136719 200.054688 232.109375 C 210.683594 227.648438 220.863281 222.605469 229.691406 217.832031 C 239.285156 212.605469 246.445312 205.21875 251.21875 195.355469 C 255.589844 186.257812 258.695312 176.167969 259.144531 166.035156 C 259.777344 151.984375 255.046875 138.246094 247.75 126.402344 C 245.589844 122.933594 243.203125 119.464844 240.542969 116.265625 C 240.769531 115.367188 240.816406 114.511719 240.636719 113.699219 C 240.453125 112.753906 240.09375 111.808594 239.507812 110.953125 C 238.382812 109.242188 236.582031 107.890625 234.734375 106.855469 C 232.886719 105.816406 230.953125 105.1875 229.511719 104.871094 C 228.789062 104.691406 228.203125 104.601562 227.796875 104.511719 C 227.574219 104.511719 227.4375 104.464844 227.304688 104.464844 C 227.214844 104.464844 227.167969 104.464844 227.167969 104.464844 C 227.167969 104.464844 227.214844 104.511719 227.214844 104.601562 C 227.257812 104.691406 227.347656 104.828125 227.4375 105.007812 C 227.617188 105.367188 227.890625 105.90625 228.25 106.539062 C 228.925781 107.800781 229.871094 109.464844 230.953125 111.085938 C 231.492188 111.898438 232.121094 112.707031 232.753906 113.429688 C 233.066406 113.789062 233.429688 114.148438 233.789062 114.464844 C 234.148438 114.78125 234.507812 115.097656 234.871094 115.367188 C 235.636719 115.90625 236.445312 116.3125 237.390625 116.539062 C 238.066406 116.71875 238.832031 116.808594 239.597656 116.71875 C 244.6875 122.753906 248.878906 129.734375 252.03125 136.761719 C 256.082031 145.722656 258.246094 155.453125 258.019531 165.269531 C 257.75 175.988281 254.191406 186.84375 249.371094 196.347656 C 245.632812 203.734375 240.183594 209.769531 233.25 214.273438 C 227.03125 218.28125 220.1875 221.300781 213.386719 224.273438 C 208.296875 226.480469 202.261719 228.730469 196.136719 230.757812 C 183.03125 226.386719 169.335938 220.441406 159.835938 215.082031 C 154.878906 212.292969 150.375 208.867188 146.636719 204.5 C 142.945312 200.175781 140.242188 195.039062 138.082031 189.769531 C 133.980469 179.816406 131.414062 169.503906 132.042969 158.648438 C 132.765625 146.039062 137.71875 133.96875 144.65625 123.472656 C 146.414062 120.769531 148.347656 118.113281 150.421875 115.589844 C 151.1875 115.636719 151.863281 115.546875 152.539062 115.367188 C 153.4375 115.140625 154.25 114.691406 155.058594 114.195312 C 155.464844 113.925781 155.824219 113.609375 156.140625 113.292969 C 156.5 112.980469 156.816406 112.617188 157.175781 112.257812 C 157.808594 111.492188 158.4375 110.726562 158.976562 109.917969 C 160.058594 108.296875 161.003906 106.628906 161.679688 105.367188 C 162.042969 104.738281 162.3125 104.195312 162.492188 103.835938 C 162.582031 103.65625 162.671875 103.519531 162.714844 103.429688 C 162.808594 103.429688 162.851562 103.386719 162.851562 103.386719 C 162.851562 103.386719 162.808594 103.386719 162.714844 103.386719 C 162.625 103.386719 162.445312 103.429688 162.222656 103.429688 C 161.816406 103.476562 161.183594 103.609375 160.464844 103.746094 C 159.023438 104.105469 157.085938 104.78125 155.238281 105.773438 C 153.394531 106.808594 151.59375 108.160156 150.464844 109.871094 C 149.878906 110.683594 149.519531 111.628906 149.339844 112.617188 C 149.203125 113.429688 149.203125 114.285156 149.429688 115.140625 C 144.566406 120.90625 140.558594 127.570312 137.40625 134.28125 C 133.53125 142.523438 131.234375 151.488281 130.875 160.585938 C 130.46875 171.078125 133.304688 181.125 137.269531 190.71875 C 140.421875 198.464844 144.972656 205.488281 151.410156 210.894531 Z M 151.410156 210.894531 " fill-opacity="1" fill-rule="nonzero"/></g><path fill="#0e543d" d="M 228.160156 229.902344 C 230.546875 229.496094 232.753906 228.730469 234.328125 228.054688 C 235.90625 227.378906 236.898438 226.792969 236.898438 226.792969 C 236.898438 226.792969 235.90625 226.386719 234.328125 225.894531 C 232.753906 225.351562 230.679688 224.722656 228.519531 224.179688 C 226.3125 223.640625 224.058594 223.28125 221.945312 223.371094 C 220.90625 223.414062 219.871094 223.597656 218.925781 223.957031 C 217.933594 224.316406 217.035156 224.8125 216.042969 225.578125 C 216.675781 227.785156 218.609375 229.136719 220.863281 229.765625 C 223.203125 230.398438 225.773438 230.351562 228.160156 229.902344 Z M 228.160156 229.902344 " fill-opacity="1" fill-rule="nonzero"/><path fill="#0e543d" d="M 216.402344 222.066406 C 217.394531 221.882812 218.296875 221.433594 219.105469 220.804688 C 220.726562 219.585938 221.988281 217.695312 222.800781 215.804688 C 223.65625 213.914062 224.105469 211.929688 224.375 210.445312 C 224.511719 209.722656 224.554688 209.09375 224.601562 208.6875 C 224.644531 208.238281 224.644531 208.011719 224.644531 208.011719 C 224.644531 208.011719 223.878906 208.417969 222.753906 209.09375 C 221.628906 209.8125 220.1875 210.761719 218.746094 211.929688 C 217.304688 213.101562 215.910156 214.453125 214.917969 216.03125 C 213.925781 217.605469 213.296875 219.40625 213.386719 221.703125 C 214.378906 222.199219 215.457031 222.246094 216.402344 222.066406 Z M 216.402344 222.066406 " fill-opacity="1" fill-rule="nonzero"/><path fill="#0e543d" d="M 244.328125 213.6875 C 242.078125 213.777344 239.734375 213.914062 237.796875 214.542969 C 235.816406 215.171875 234.148438 216.210938 233.066406 218.144531 C 234.417969 219.992188 236.355469 220.847656 238.5625 220.9375 C 240.769531 221.027344 243.15625 220.398438 245.410156 219.40625 C 247.617188 218.417969 249.644531 217.019531 251.085938 215.847656 C 251.804688 215.265625 252.390625 214.722656 252.75 214.363281 C 253.15625 214.003906 253.335938 213.730469 253.335938 213.730469 C 253.335938 213.730469 252.253906 213.730469 250.5 213.6875 C 248.832031 213.6875 246.582031 213.640625 244.328125 213.6875 Z M 244.328125 213.6875 " fill-opacity="1" fill-rule="nonzero"/><path fill="#0e543d" d="M 229.238281 214.769531 C 231.402344 214.902344 233.160156 213.824219 234.375 212.246094 C 235.636719 210.667969 236.355469 208.554688 236.671875 206.527344 C 236.988281 204.453125 236.898438 202.515625 236.625 201.078125 C 236.535156 200.355469 236.402344 199.769531 236.265625 199.363281 C 236.175781 198.960938 236.085938 198.734375 236.085938 198.734375 C 236.085938 198.734375 235.949219 198.871094 235.726562 199.09375 C 235.5 199.363281 235.140625 199.726562 234.78125 200.175781 C 233.96875 201.078125 232.886719 202.335938 231.808594 203.824219 C 230.726562 205.308594 229.691406 206.976562 229.105469 208.824219 C 228.519531 210.667969 228.339844 212.652344 229.238281 214.769531 Z M 229.238281 214.769531 " fill-opacity="1" fill-rule="nonzero"/><path fill="#0e543d" d="M 258.964844 203.554688 C 259.191406 203.285156 259.417969 203.011719 259.640625 202.742188 L 259.957031 202.335938 L 260.226562 201.976562 C 260.542969 201.527344 260.859375 201.078125 261.128906 200.671875 C 261.714844 199.816406 262.164062 198.960938 262.570312 198.285156 C 262.972656 197.5625 263.289062 196.976562 263.46875 196.527344 C 263.695312 196.078125 263.785156 195.851562 263.785156 195.851562 C 263.785156 195.851562 262.792969 196.167969 261.21875 196.617188 C 259.6875 197.113281 257.660156 197.832031 255.679688 198.734375 C 255.183594 198.960938 254.6875 199.230469 254.191406 199.5 C 253.652344 199.816406 253.15625 200.085938 252.660156 200.402344 C 252.164062 200.714844 251.667969 200.984375 251.21875 201.300781 C 250.769531 201.617188 250.320312 201.933594 249.914062 202.246094 C 248.246094 203.554688 247.03125 205.039062 246.488281 207.246094 C 248.335938 208.597656 250.453125 208.867188 252.660156 208.148438 C 254.914062 207.335938 257.121094 205.714844 258.964844 203.554688 Z M 258.964844 203.554688 " fill-opacity="1" fill-rule="nonzero"/><path fill="#0e543d" d="M 245.722656 194.367188 C 245.140625 192.339844 244.328125 190.492188 243.652344 189.1875 C 243.292969 188.511719 243.023438 188.015625 242.75 187.609375 C 242.527344 187.25 242.347656 187.023438 242.347656 187.023438 C 242.347656 187.023438 242.257812 187.25 242.121094 187.609375 C 241.984375 187.96875 241.761719 188.464844 241.492188 189.097656 C 241.265625 189.726562 240.996094 190.492188 240.769531 191.300781 C 240.542969 192.113281 240.273438 193.148438 240.230469 193.78125 C 240.050781 195.222656 239.777344 196.976562 239.914062 198.777344 C 240.050781 200.582031 240.5 202.515625 241.941406 204.320312 C 244.011719 203.824219 245.363281 202.292969 245.949219 200.402344 C 246.085938 199.90625 246.21875 199.453125 246.265625 198.914062 C 246.308594 198.417969 246.308594 197.878906 246.308594 197.382812 C 246.265625 196.886719 246.175781 196.347656 246.085938 195.898438 C 245.996094 195.402344 245.859375 194.90625 245.722656 194.367188 Z M 245.722656 194.367188 " fill-opacity="1" fill-rule="nonzero"/><path fill="#0e543d" d="M 268.738281 178.464844 C 268.875 178.015625 268.917969 177.699219 268.917969 177.699219 C 268.917969 177.699219 268.019531 178.195312 266.53125 178.960938 C 265.089844 179.726562 263.246094 180.855469 261.441406 182.113281 C 259.597656 183.375 257.796875 184.773438 256.625 186.394531 C 256.355469 186.796875 256.039062 187.203125 255.8125 187.65625 C 255.589844 188.058594 255.363281 188.511719 255.226562 189.003906 C 254.957031 189.953125 254.867188 190.941406 255.046875 192.023438 C 257.210938 192.652344 259.234375 192.160156 261.039062 190.988281 C 261.488281 190.71875 261.9375 190.355469 262.34375 189.996094 C 262.75 189.636719 263.199219 189.230469 263.558594 188.824219 C 264.28125 187.96875 264.957031 187.023438 265.585938 186.03125 C 266.847656 184.097656 267.613281 181.980469 268.152344 180.359375 C 268.425781 179.636719 268.648438 178.960938 268.738281 178.464844 Z M 268.738281 178.464844 " fill-opacity="1" fill-rule="nonzero"/><path fill="#0e543d" d="M 249.867188 190.265625 C 250.722656 189.636719 251.355469 188.871094 251.804688 188.015625 C 252.03125 187.609375 252.164062 187.113281 252.300781 186.664062 C 252.433594 186.214844 252.480469 185.71875 252.480469 185.222656 C 252.480469 183.195312 251.894531 181.125 251.039062 179.230469 C 250.09375 177.339844 248.921875 175.71875 248.019531 174.59375 C 247.570312 174.007812 247.164062 173.558594 246.851562 173.242188 C 246.535156 172.925781 246.355469 172.746094 246.355469 172.746094 C 246.355469 172.746094 246.308594 172.972656 246.265625 173.332031 C 246.175781 173.691406 246.085938 174.234375 245.949219 174.863281 C 245.722656 176.167969 245.589844 177.925781 245.5 179.773438 C 245.453125 180.71875 245.5 181.664062 245.632812 182.65625 C 245.679688 182.925781 245.722656 183.152344 245.722656 183.375 C 245.769531 183.601562 245.769531 183.871094 245.816406 184.097656 C 245.90625 184.59375 246.039062 185.042969 246.175781 185.492188 C 246.714844 187.429688 247.886719 189.097656 249.867188 190.265625 Z M 249.867188 190.265625 " fill-opacity="1" fill-rule="nonzero"/><g clip-path="url(#5469f7ffa6)"><path fill="#0e543d" d="M 263.875 164.683594 C 263.515625 165.089844 263.15625 165.496094 262.792969 165.945312 C 262.433594 166.351562 262.117188 166.800781 261.757812 167.25 C 261.082031 168.105469 260.496094 169.007812 260.09375 169.953125 C 259.867188 170.40625 259.730469 170.898438 259.597656 171.351562 C 259.460938 171.800781 259.328125 172.296875 259.28125 172.746094 C 259.191406 173.691406 259.28125 174.683594 259.6875 175.71875 C 261.9375 175.945312 263.832031 175.042969 265.40625 173.558594 C 265.8125 173.195312 266.171875 172.792969 266.53125 172.339844 C 266.847656 171.890625 267.164062 171.394531 267.433594 170.898438 C 267.972656 169.910156 268.46875 168.78125 268.875 167.703125 C 269.101562 167.160156 269.234375 166.574219 269.371094 166.035156 C 269.503906 165.496094 269.59375 164.953125 269.730469 164.414062 C 269.910156 163.332031 270.089844 162.386719 270.136719 161.53125 C 270.226562 159.820312 270.226562 158.695312 270.226562 158.695312 C 270.226562 158.695312 269.414062 159.371094 268.199219 160.496094 C 267.027344 161.578125 265.363281 163.0625 263.875 164.683594 Z M 263.875 164.683594 " fill-opacity="1" fill-rule="nonzero"/></g><path fill="#0e543d" d="M 255.722656 171.980469 C 255.859375 171.53125 255.902344 171.035156 255.949219 170.585938 C 255.949219 170.089844 255.902344 169.640625 255.8125 169.144531 C 255.632812 168.152344 255.273438 167.207031 254.824219 166.304688 C 254.730469 166.082031 254.597656 165.855469 254.460938 165.628906 C 254.328125 165.40625 254.191406 165.179688 254.011719 164.953125 C 253.695312 164.503906 253.382812 164.097656 253.066406 163.695312 C 252.390625 162.882812 251.714844 162.164062 251.039062 161.53125 C 250.722656 161.214844 250.363281 160.945312 250.046875 160.675781 C 249.734375 160.40625 249.371094 160.179688 249.101562 159.957031 C 247.886719 159.097656 247.074219 158.648438 247.074219 158.648438 C 247.074219 158.648438 247.074219 159.460938 247.210938 160.722656 C 247.253906 161.035156 247.253906 161.351562 247.300781 161.757812 C 247.347656 162.117188 247.347656 162.476562 247.390625 162.882812 C 247.480469 163.695312 247.660156 164.550781 247.839844 165.449219 C 247.976562 166.351562 248.203125 167.25 248.515625 168.152344 C 248.695312 168.601562 248.878906 169.054688 249.058594 169.503906 C 249.238281 169.953125 249.460938 170.359375 249.6875 170.765625 C 250.632812 172.429688 252.074219 173.828125 254.238281 174.59375 C 255.003906 173.738281 255.453125 172.882812 255.722656 171.980469 Z M 255.722656 171.980469 " fill-opacity="1" fill-rule="nonzero"/><path fill="#0e543d" d="M 259.777344 153.15625 C 259.550781 154.144531 259.460938 155.089844 259.640625 156.035156 C 259.730469 156.53125 259.867188 156.984375 260.046875 157.433594 C 260.226562 157.882812 260.453125 158.378906 260.722656 158.828125 C 262.972656 158.515625 264.6875 157.207031 265.765625 155.359375 C 266.308594 154.414062 266.757812 153.378906 267.074219 152.253906 C 267.386719 151.128906 267.523438 149.957031 267.613281 148.785156 C 267.660156 148.199219 267.703125 147.613281 267.703125 147.027344 C 267.703125 146.445312 267.660156 145.902344 267.613281 145.363281 C 267.523438 144.28125 267.433594 143.289062 267.296875 142.433594 C 266.9375 140.769531 266.621094 139.6875 266.621094 139.6875 C 266.621094 139.6875 265.992188 140.589844 265.136719 141.941406 C 264.730469 142.613281 264.234375 143.425781 263.695312 144.328125 C 263.15625 145.226562 262.613281 146.171875 262.117188 147.117188 C 261.625 148.066406 261.128906 149.101562 260.675781 150.089844 C 260.273438 151.171875 259.957031 152.164062 259.777344 153.15625 Z M 259.777344 153.15625 " fill-opacity="1" fill-rule="nonzero"/><path fill="#0e543d" d="M 255.453125 152.839844 C 255.046875 151.9375 254.417969 151.128906 253.742188 150.363281 C 253.425781 150 253.066406 149.597656 252.660156 149.28125 C 252.300781 148.921875 251.851562 148.605469 251.445312 148.335938 C 249.777344 147.117188 248.066406 146.261719 246.671875 145.769531 C 245.273438 145.273438 244.375 145.046875 244.375 145.046875 C 244.375 145.046875 244.554688 145.8125 245.003906 146.984375 C 245.183594 147.570312 245.410156 148.246094 245.722656 148.964844 C 245.859375 149.324219 246.039062 149.6875 246.21875 150.089844 C 246.398438 150.496094 246.535156 150.855469 246.761719 151.261719 C 247.121094 152.074219 247.617188 152.882812 248.15625 153.648438 C 248.652344 154.414062 249.238281 155.179688 249.914062 155.855469 C 251.308594 157.164062 252.929688 158.242188 255.226562 158.425781 C 255.496094 157.972656 255.722656 157.523438 255.859375 157.074219 C 255.992188 156.621094 256.039062 156.125 256.039062 155.675781 C 256.039062 154.6875 255.859375 153.738281 255.453125 152.839844 Z M 255.453125 152.839844 " fill-opacity="1" fill-rule="nonzero"/><path fill="#0e543d" d="M 258.5625 122.527344 C 258.5625 122.527344 258.199219 123.519531 257.660156 125.050781 C 257.121094 126.582031 256.535156 128.609375 255.992188 130.769531 C 255.722656 131.851562 255.542969 132.929688 255.363281 133.96875 C 255.183594 135.046875 255.136719 136.085938 255.183594 137.074219 C 255.226562 137.570312 255.273438 138.066406 255.363281 138.515625 C 255.453125 139.011719 255.589844 139.460938 255.769531 139.867188 C 255.949219 140.316406 256.21875 140.722656 256.488281 141.128906 C 256.757812 141.535156 257.074219 141.894531 257.480469 142.300781 C 258.515625 141.847656 259.371094 141.21875 260.046875 140.453125 C 260.722656 139.640625 261.171875 138.742188 261.488281 137.707031 C 261.625 137.210938 261.757812 136.667969 261.847656 136.085938 C 261.9375 135.542969 261.984375 134.957031 261.984375 134.371094 C 261.984375 133.246094 261.847656 132.03125 261.667969 130.90625 C 261.21875 128.652344 260.496094 126.492188 259.777344 124.960938 C 259.417969 124.195312 259.144531 123.5625 258.921875 123.15625 C 258.695312 122.753906 258.5625 122.527344 258.5625 122.527344 Z M 258.5625 122.527344 " fill-opacity="1" fill-rule="nonzero"/><path fill="#0e543d" d="M 251.804688 138.5625 C 251.578125 138.15625 251.355469 137.75 251.039062 137.390625 C 250.410156 136.625 249.644531 135.996094 248.785156 135.410156 C 247.929688 134.824219 246.984375 134.371094 246.039062 134.011719 C 245.542969 133.832031 245.09375 133.652344 244.644531 133.515625 C 244.191406 133.382812 243.699219 133.246094 243.246094 133.15625 C 242.347656 132.929688 241.492188 132.796875 240.769531 132.707031 C 240.050781 132.617188 239.464844 132.570312 239.011719 132.570312 C 238.5625 132.570312 238.339844 132.570312 238.339844 132.570312 C 238.339844 132.570312 238.429688 132.75 238.652344 133.066406 C 238.832031 133.382812 239.105469 133.832031 239.417969 134.328125 C 239.597656 134.597656 239.777344 134.867188 240.003906 135.136719 C 240.09375 135.273438 240.230469 135.453125 240.320312 135.589844 C 240.410156 135.722656 240.542969 135.902344 240.636719 136.085938 C 241.085938 136.714844 241.625 137.390625 242.257812 138.066406 C 242.796875 138.742188 243.425781 139.417969 244.148438 140.003906 C 244.328125 140.183594 244.507812 140.316406 244.6875 140.453125 C 244.867188 140.589844 245.050781 140.722656 245.230469 140.902344 C 245.589844 141.171875 245.996094 141.445312 246.398438 141.667969 C 247.210938 142.121094 248.15625 142.480469 249.101562 142.707031 C 250.046875 142.929688 251.085938 142.976562 252.210938 142.796875 C 252.34375 142.300781 252.480469 141.804688 252.480469 141.308594 C 252.480469 140.859375 252.433594 140.363281 252.300781 139.914062 C 252.164062 139.417969 252.03125 138.96875 251.804688 138.5625 Z M 251.804688 138.5625 " fill-opacity="1" fill-rule="nonzero"/><path fill="#0e543d" d="M 250.363281 127.300781 C 252.164062 125.949219 253.019531 124.015625 253.15625 121.898438 C 253.199219 120.859375 253.109375 119.734375 252.839844 118.609375 C 252.617188 117.484375 252.210938 116.402344 251.757812 115.367188 C 251.308594 114.332031 250.769531 113.339844 250.226562 112.4375 C 249.6875 111.539062 249.148438 110.773438 248.652344 110.097656 C 248.15625 109.421875 247.75 108.925781 247.4375 108.566406 C 247.121094 108.203125 246.941406 108.023438 246.941406 108.023438 C 246.941406 108.023438 246.761719 109.0625 246.582031 110.636719 C 246.488281 111.449219 246.398438 112.394531 246.308594 113.382812 C 246.265625 113.878906 246.21875 114.421875 246.21875 114.914062 C 246.175781 115.457031 246.175781 115.996094 246.175781 116.539062 C 246.175781 118.699219 246.265625 120.949219 246.851562 122.84375 C 247.121094 123.789062 247.527344 124.6875 248.113281 125.410156 C 248.695312 126.175781 249.417969 126.804688 250.363281 127.300781 Z M 250.363281 127.300781 " fill-opacity="1" fill-rule="nonzero"/><path fill="#0e543d" d="M 242.933594 123.519531 C 241.355469 122.347656 239.328125 121.671875 237.300781 121.355469 C 236.3125 121.175781 235.273438 121.132812 234.375 121.132812 C 233.429688 121.132812 232.574219 121.175781 231.851562 121.222656 C 230.367188 121.355469 229.421875 121.582031 229.421875 121.582031 C 229.421875 121.582031 229.554688 121.714844 229.824219 121.988281 C 230.097656 122.257812 230.457031 122.617188 230.90625 123.066406 C 231.355469 123.519531 231.898438 124.015625 232.527344 124.554688 C 233.113281 125.09375 233.835938 125.636719 234.554688 126.175781 C 235.273438 126.714844 236.039062 127.210938 236.898438 127.660156 C 237.707031 128.113281 238.5625 128.519531 239.507812 128.742188 C 241.308594 129.285156 243.292969 129.375 245.410156 128.425781 C 245.453125 127.390625 245.230469 126.445312 244.824219 125.636719 C 244.328125 124.78125 243.699219 124.105469 242.933594 123.519531 Z M 242.933594 123.519531 " fill-opacity="1" fill-rule="nonzero"/><path fill="#a9b8cc" d="M 196.109375 191.089844 L 196.03125 173.128906 C 202.875 167.367188 214.417969 169.894531 218.96875 174.535156 C 215.355469 171.65625 204.503906 168.5 197.457031 173.921875 L 196.109375 191.089844 " fill-opacity="1" fill-rule="nonzero"/><path fill="#a9b8cc" d="M 193.957031 191.089844 L 194.035156 173.128906 C 187.1875 167.367188 175.644531 169.894531 171.09375 174.535156 C 174.707031 171.65625 185.558594 168.5 192.605469 173.921875 L 193.957031 191.089844 " fill-opacity="1" fill-rule="nonzero"/><g clip-path="url(#bf96dcc04c)"><path fill="#a9b8cc" d="M 196.125 200.816406 C 200.214844 197.941406 205.859375 197.492188 210.707031 198.71875 C 215.554688 199.949219 219.871094 202.75 223.65625 206.019531 L 220.402344 180.261719 L 222.394531 202.96875 C 222.394531 202.96875 216.773438 198.316406 209.144531 197.371094 C 199.976562 196.234375 196.125 200.816406 196.125 200.816406 " fill-opacity="1" fill-rule="nonzero"/></g><g clip-path="url(#d92f543dae)"><path fill="#a9b8cc" d="M 193.9375 200.816406 C 189.847656 197.941406 184.203125 197.492188 179.355469 198.71875 C 174.507812 199.949219 170.191406 202.75 166.40625 206.019531 L 169.660156 180.261719 L 167.667969 202.96875 C 167.667969 202.96875 173.289062 198.316406 180.921875 197.371094 C 190.085938 196.234375 193.9375 200.816406 193.9375 200.816406 " fill-opacity="1" fill-rule="nonzero"/></g><g clip-path="url(#0685725f97)"><path fill="#46699f" d="M 207.195312 200.433594 C 201.410156 200.277344 197.460938 202.898438 195.839844 204.234375 C 195.371094 204.617188 194.695312 204.617188 194.226562 204.234375 C 192.601562 202.898438 188.652344 200.277344 182.867188 200.433594 C 175.675781 200.628906 169.597656 205.652344 167.640625 207.625 L 169.542969 207.625 C 172.039062 205.296875 176.921875 201.96875 182.988281 201.988281 C 187.175781 202.003906 190.359375 203.503906 192.398438 204.875 C 192.734375 205.105469 192.9375 205.484375 192.9375 205.890625 C 192.9375 206.566406 193.484375 207.117188 194.160156 207.117188 L 195.902344 207.117188 C 196.578125 207.117188 197.125 206.566406 197.125 205.890625 C 197.125 205.484375 197.328125 205.105469 197.667969 204.875 C 199.703125 203.503906 202.886719 202.003906 207.078125 201.988281 C 213.140625 201.96875 218.710938 205.398438 221.519531 207.625 L 222.421875 207.625 C 220.464844 205.652344 214.386719 200.628906 207.195312 200.433594 " fill-opacity="1" fill-rule="nonzero"/></g><g clip-path="url(#48c7571012)"><path fill="#0e543d" d="M 232.820312 146.621094 L 196.847656 137.613281 C 195.640625 137.3125 194.382812 137.3125 193.199219 137.613281 L 157.199219 146.621094 C 156.570312 146.769531 156.570312 147.675781 157.199219 147.828125 L 174.886719 152.253906 C 184.898438 149.285156 195.664062 149.136719 205.902344 150.945312 C 195.539062 149.789062 184.621094 150.695312 174.886719 154.441406 L 174.886719 159.5 C 174.886719 159.925781 175.289062 160.203125 175.691406 160.078125 C 181.425781 158.316406 188.015625 157.285156 195.011719 157.285156 C 202.003906 157.285156 208.597656 158.316406 214.355469 160.078125 C 214.757812 160.203125 215.136719 159.925781 215.136719 159.5 L 215.136719 152.253906 L 222.859375 150.316406 L 222.859375 163.851562 L 222.734375 163.851562 C 222.457031 163.851562 222.230469 164.078125 222.230469 164.355469 L 222.230469 166.84375 C 222.230469 167.121094 222.457031 167.347656 222.734375 167.347656 L 224.242188 167.347656 C 224.519531 167.347656 224.746094 167.121094 224.746094 166.84375 L 224.746094 164.355469 C 224.746094 164.078125 224.519531 163.851562 224.242188 163.851562 L 224.117188 163.851562 L 224.117188 150.015625 L 232.820312 147.828125 C 233.476562 147.675781 233.476562 146.769531 232.820312 146.621094 Z M 232.820312 146.621094 " fill-opacity="1" fill-rule="nonzero"/></g><g fill="#0e543d" fill-opacity="1"><g transform="translate(141.809394, 265.822004)"><g><path d="M 0.328125 0 L 9.898438 0 C 7.796875 -0.328125 7.109375 -0.871094 7.109375 -2.320312 C 7.109375 -2.609375 7.144531 -2.902344 7.179688 -3.265625 L 9.394531 -18.75 L 15.773438 -3.265625 L 19.074219 -3.265625 L 25.496094 -18.75 L 27.707031 -3.265625 C 27.742188 -2.902344 27.777344 -2.609375 27.777344 -2.320312 C 27.777344 -0.871094 27.089844 -0.328125 24.988281 0 L 34.5625 0 C 32.3125 -0.433594 31.730469 -0.941406 31.40625 -3.265625 L 29.15625 -18.964844 C 29.085938 -19.546875 29.011719 -20.054688 29.011719 -20.488281 C 29.011719 -21.867188 29.59375 -22.449219 31.476562 -22.847656 L 24.152344 -22.847656 L 17.445312 -6.203125 L 10.769531 -22.847656 L 3.410156 -22.847656 C 5.292969 -22.449219 5.875 -21.867188 5.875 -20.488281 C 5.875 -20.054688 5.800781 -19.546875 5.730469 -18.964844 L 3.445312 -3.265625 C 3.117188 -0.941406 2.574219 -0.433594 0.328125 0 Z M 0.328125 0 "/></g></g></g><g fill="#0e543d" fill-opacity="1"><g transform="translate(176.655787, 265.822004)"><g><path d="M 0.328125 -0.6875 C 0.328125 -0.6875 1.703125 0.328125 5.800781 0.328125 C 9.429688 0.328125 11.675781 -1.667969 11.675781 -5.078125 L 11.675781 -18.964844 C 11.675781 -21.722656 12.183594 -22.230469 14.652344 -22.847656 L 5.003906 -22.847656 C 7.46875 -22.230469 7.976562 -21.722656 7.976562 -18.964844 L 7.976562 -5.695312 C 7.976562 -3.625 6.746094 -2.464844 4.460938 -2.464844 C 1.160156 -2.464844 0.328125 -4.53125 0.328125 -4.53125 Z M 0.328125 -0.6875 "/></g></g></g><g fill="#0e543d" fill-opacity="1"><g transform="translate(192.139048, 265.822004)"><g><path d="M 1.34375 -22.847656 C 3.808594 -22.230469 4.277344 -21.722656 4.277344 -18.964844 L 4.277344 -3.878906 C 4.277344 -1.125 3.808594 -0.617188 1.34375 0 L 10.953125 0 C 8.484375 -0.617188 8.015625 -1.125 8.015625 -3.878906 L 8.015625 -20.054688 L 17.335938 -20.054688 C 20.78125 -20.054688 22.375 -18.640625 22.375 -15.628906 C 22.375 -12.621094 20.78125 -11.167969 17.335938 -11.167969 L 12.691406 -11.167969 L 21.796875 0 L 28.03125 0 C 26.148438 -0.582031 25.203125 -1.449219 22.957031 -4.132812 L 19.292969 -8.414062 C 23.863281 -8.738281 26.074219 -11.0625 26.074219 -15.59375 C 26.074219 -20.488281 23.425781 -22.847656 18.058594 -22.847656 Z M 1.34375 -22.847656 "/></g></g></g><g fill="#0e543d" fill-opacity="1"><g transform="translate(220.603584, 265.822004)"><g><path d="M 1.34375 0 L 10.953125 0 C 8.484375 -0.617188 8.015625 -1.125 8.015625 -3.878906 L 8.015625 -8.378906 L 18.058594 -8.378906 C 23.425781 -8.378906 26.074219 -10.699219 26.074219 -15.59375 C 26.074219 -20.488281 23.425781 -22.847656 18.058594 -22.847656 L 1.34375 -22.847656 C 3.808594 -22.230469 4.277344 -21.722656 4.277344 -18.964844 L 4.277344 -3.878906 C 4.277344 -1.125 3.808594 -0.617188 1.34375 0 Z M 8.015625 -11.167969 L 8.015625 -20.054688 L 17.335938 -20.054688 C 20.78125 -20.054688 22.375 -18.640625 22.375 -15.628906 C 22.375 -12.621094 20.78125 -11.167969 17.335938 -11.167969 Z M 8.015625 -11.167969 "/></g></g></g><g fill="#282b30" fill-opacity="1"><g transform="translate(152.998999, 281.777941)"><g><path d="M 2.8125 -10.25 L 2.8125 -5.765625 L 7.640625 -5.765625 L 7.640625 -10.25 L 9.15625 -10.25 L 9.15625 0 L 7.640625 0 L 7.640625 -4.59375 L 2.8125 -4.59375 L 2.8125 0 L 1.3125 0 L 1.3125 -10.25 Z M 2.8125 -10.25 "/></g></g></g><g fill="#282b30" fill-opacity="1"><g transform="translate(165.705051, 281.777941)"><g><path d="M 7.203125 -10.25 L 7.203125 -9.09375 L 2.8125 -9.09375 L 2.8125 -5.859375 L 6.03125 -5.859375 L 6.03125 -4.703125 L 2.8125 -4.703125 L 2.8125 -1.171875 L 7.703125 -1.171875 L 7.703125 0 L 1.3125 0 L 1.3125 -10.25 Z M 7.203125 -10.25 "/></g></g></g><g fill="#282b30" fill-opacity="1"><g transform="translate(176.156846, 281.777941)"><g><path d="M 8.390625 -0.75 C 8.535156 -0.476562 8.671875 -0.226562 8.796875 0 L 7.09375 0 C 7.03125 -0.09375 6.957031 -0.234375 6.875 -0.421875 L 6.71875 -0.75 C 6.632812 -0.9375 6.503906 -1.265625 6.328125 -1.734375 C 6.140625 -2.234375 5.96875 -2.644531 5.8125 -2.96875 C 5.664062 -3.300781 5.488281 -3.597656 5.28125 -3.859375 C 5.082031 -4.117188 4.851562 -4.289062 4.59375 -4.375 C 4.332031 -4.363281 3.738281 -4.359375 2.8125 -4.359375 L 2.8125 0 L 1.3125 0 L 1.3125 -10.25 L 1.953125 -10.25 C 2.203125 -10.25 2.554688 -10.265625 3.015625 -10.296875 C 3.734375 -10.335938 4.253906 -10.359375 4.578125 -10.359375 C 5.671875 -10.359375 6.523438 -10.125 7.140625 -9.65625 C 7.753906 -9.1875 8.0625 -8.460938 8.0625 -7.484375 C 8.0625 -6.742188 7.898438 -6.132812 7.578125 -5.65625 C 7.253906 -5.175781 6.800781 -4.835938 6.21875 -4.640625 C 6.414062 -4.492188 6.601562 -4.289062 6.78125 -4.03125 C 6.957031 -3.78125 7.113281 -3.507812 7.25 -3.21875 C 7.394531 -2.925781 7.566406 -2.550781 7.765625 -2.09375 C 8.035156 -1.457031 8.242188 -1.007812 8.390625 -0.75 Z M 2.8125 -5.4375 C 3.050781 -5.40625 3.578125 -5.390625 4.390625 -5.390625 C 5.078125 -5.390625 5.601562 -5.550781 5.96875 -5.875 C 6.34375 -6.195312 6.53125 -6.707031 6.53125 -7.40625 C 6.53125 -7.832031 6.457031 -8.179688 6.3125 -8.453125 C 6.164062 -8.722656 5.929688 -8.921875 5.609375 -9.046875 C 5.296875 -9.179688 4.878906 -9.25 4.359375 -9.25 C 3.722656 -9.25 3.207031 -9.210938 2.8125 -9.140625 Z M 2.8125 -5.4375 "/></g></g></g><g fill="#282b30" fill-opacity="1"><g transform="translate(187.618009, 281.777941)"><g><path d="M 2.921875 -10.25 L 2.921875 0 L 1.390625 0 L 1.390625 -10.25 Z M 2.921875 -10.25 "/></g></g></g><g fill="#282b30" fill-opacity="1"><g transform="translate(194.187101, 281.777941)"><g><path d="M 0.421875 -9.09375 L 0.421875 -10.25 L 8.359375 -10.25 L 8.359375 -9.09375 L 5.140625 -9.09375 L 5.140625 0 L 3.625 0 L 3.625 -9.09375 Z M 0.421875 -9.09375 "/></g></g></g><g fill="#282b30" fill-opacity="1"><g transform="translate(205.217602, 281.777941)"><g><path d="M 6.84375 -2.59375 L 2.640625 -2.59375 L 1.734375 0 L 0.140625 0 L 4.0625 -10.359375 L 5.515625 -10.359375 L 9.34375 0 L 7.71875 0 Z M 6.46875 -3.71875 L 5.09375 -7.8125 L 4.796875 -8.765625 L 4.5 -7.8125 L 3.046875 -3.71875 Z M 6.46875 -3.71875 "/></g></g></g><g fill="#282b30" fill-opacity="1"><g transform="translate(216.947933, 281.777941)"><g><path d="M 8.875 -5.125 L 8.875 -0.640625 C 8.78125 -0.628906 8.679688 -0.609375 8.578125 -0.578125 C 8.484375 -0.546875 8.351562 -0.5 8.1875 -0.4375 C 7.769531 -0.269531 7.351562 -0.132812 6.9375 -0.03125 C 6.53125 0.0625 6.023438 0.109375 5.421875 0.109375 C 4.429688 0.109375 3.578125 -0.109375 2.859375 -0.546875 C 2.148438 -0.992188 1.609375 -1.609375 1.234375 -2.390625 C 0.859375 -3.179688 0.671875 -4.078125 0.671875 -5.078125 C 0.671875 -6.210938 0.875 -7.175781 1.28125 -7.96875 C 1.695312 -8.757812 2.265625 -9.351562 2.984375 -9.75 C 3.703125 -10.15625 4.515625 -10.359375 5.421875 -10.359375 C 5.929688 -10.359375 6.34375 -10.332031 6.65625 -10.28125 C 6.96875 -10.238281 7.304688 -10.175781 7.671875 -10.09375 C 7.929688 -10.03125 8.132812 -9.984375 8.28125 -9.953125 L 8.21875 -8.609375 C 7.84375 -8.804688 7.4375 -8.953125 7 -9.046875 C 6.570312 -9.140625 6.015625 -9.1875 5.328125 -9.1875 C 4.722656 -9.1875 4.1875 -9.03125 3.71875 -8.71875 C 3.25 -8.40625 2.878906 -7.953125 2.609375 -7.359375 C 2.347656 -6.765625 2.21875 -6.0625 2.21875 -5.25 C 2.21875 -4.4375 2.332031 -3.710938 2.5625 -3.078125 C 2.800781 -2.453125 3.160156 -1.953125 3.640625 -1.578125 C 4.117188 -1.210938 4.703125 -1.03125 5.390625 -1.03125 C 5.796875 -1.03125 6.1875 -1.0625 6.5625 -1.125 C 6.945312 -1.195312 7.234375 -1.296875 7.421875 -1.421875 L 7.421875 -3.96875 L 5.5625 -4.046875 L 5.5625 -5.125 Z M 8.875 -5.125 "/></g></g></g><g fill="#282b30" fill-opacity="1"><g transform="translate(228.853221, 281.777941)"><g><path d="M 7.203125 -10.25 L 7.203125 -9.09375 L 2.8125 -9.09375 L 2.8125 -5.859375 L 6.03125 -5.859375 L 6.03125 -4.703125 L 2.8125 -4.703125 L 2.8125 -1.171875 L 7.703125 -1.171875 L 7.703125 0 L 1.3125 0 L 1.3125 -10.25 Z M 7.203125 -10.25 "/></g></g></g></svg>