<svg xmlns="http://www.w3.org/2000/svg" xmlns:xlink="http://www.w3.org/1999/xlink" width="500" zoomAndPan="magnify" viewBox="0 0 375 374.999991" height="500" preserveAspectRatio="xMidYMid meet" version="1.0"><defs><g/><clipPath id="98f446f41a"><path d="M 119.839844 159 L 132 159 L 132 178 L 119.839844 178 Z M 119.839844 159 " clip-rule="nonzero"/></clipPath><clipPath id="2602cbbec2"><path d="M 131 103.351562 L 265 103.351562 L 265 245.851562 L 131 245.851562 Z M 131 103.351562 " clip-rule="nonzero"/></clipPath><clipPath id="c30f77470c"><path d="M 264 160 L 275.839844 160 L 275.839844 179 L 264 179 Z M 264 160 " clip-rule="nonzero"/></clipPath><clipPath id="8806f7e95e"><path d="M 196.109375 180.222656 L 223.394531 180.222656 L 223.394531 206.085938 L 196.109375 206.085938 Z M 196.109375 180.222656 " clip-rule="nonzero"/></clipPath><clipPath id="c62f67b12a"><path d="M 166.394531 180 L 194 180 L 194 207 L 166.394531 207 Z M 166.394531 180 " clip-rule="nonzero"/></clipPath><clipPath id="8a9dd38e5a"><path d="M 167.574219 200.390625 L 222.453125 200.390625 L 222.453125 207.625 L 167.574219 207.625 Z M 167.574219 200.390625 " clip-rule="nonzero"/></clipPath><clipPath id="80ab91e1d4"><path d="M 156.574219 137.300781 L 233.824219 137.300781 L 233.824219 167.300781 L 156.574219 167.300781 Z M 156.574219 137.300781 " clip-rule="nonzero"/></clipPath></defs><path fill="#0e543d" d="M 175.945312 229.0625 C 174.917969 228.269531 173.980469 227.753906 172.953125 227.382812 C 171.972656 227.007812 170.894531 226.820312 169.820312 226.773438 C 167.671875 226.679688 165.285156 227.101562 162.996094 227.613281 C 160.703125 228.175781 158.554688 228.832031 156.964844 229.390625 C 155.375 229.90625 154.296875 230.328125 154.296875 230.328125 C 154.296875 230.328125 155.328125 230.933594 156.964844 231.636719 C 158.601562 232.335938 160.890625 233.132812 163.367188 233.554688 C 165.847656 233.972656 168.558594 234.019531 170.894531 233.367188 C 173.28125 232.804688 175.292969 231.355469 175.945312 229.0625 Z M 175.945312 229.0625 " fill-opacity="1" fill-rule="nonzero"/><path fill="#0e543d" d="M 168.980469 219.011719 C 169.867188 221.023438 171.128906 222.9375 172.8125 224.203125 C 173.65625 224.808594 174.589844 225.324219 175.617188 225.511719 C 176.601562 225.699219 177.722656 225.652344 178.75 225.230469 C 178.796875 222.847656 178.144531 220.976562 177.160156 219.339844 C 176.132812 217.703125 174.683594 216.300781 173.1875 215.085938 C 171.691406 213.867188 170.148438 212.839844 169.027344 212.140625 C 167.855469 211.4375 167.0625 211.015625 167.0625 211.015625 C 167.0625 211.015625 167.0625 211.25 167.109375 211.71875 C 167.15625 212.140625 167.25 212.792969 167.34375 213.542969 C 167.625 214.992188 168.089844 217 168.980469 219.011719 Z M 168.980469 219.011719 " fill-opacity="1" fill-rule="nonzero"/><path fill="#0e543d" d="M 152.660156 224.296875 C 154.953125 224.203125 156.964844 223.3125 158.367188 221.398438 C 157.242188 219.386719 155.515625 218.265625 153.457031 217.65625 C 151.398438 217.046875 149.015625 216.859375 146.675781 216.769531 C 144.339844 216.722656 142 216.769531 140.269531 216.769531 C 138.496094 216.816406 137.371094 216.816406 137.371094 216.816406 C 137.371094 216.816406 137.605469 217.046875 137.980469 217.46875 C 138.402344 217.84375 138.960938 218.402344 139.710938 219.011719 C 141.207031 220.226562 143.265625 221.628906 145.601562 222.707031 C 147.847656 223.734375 150.371094 224.390625 152.660156 224.296875 Z M 152.660156 224.296875 " fill-opacity="1" fill-rule="nonzero"/><path fill="#0e543d" d="M 156.964844 215.316406 C 158.273438 216.953125 160.050781 218.03125 162.292969 217.9375 C 163.226562 215.738281 163.042969 213.683594 162.433594 211.765625 C 161.824219 209.847656 160.703125 208.117188 159.628906 206.574219 C 158.507812 205.03125 157.382812 203.769531 156.542969 202.835938 C 156.121094 202.367188 155.792969 201.992188 155.558594 201.710938 C 155.328125 201.433594 155.1875 201.292969 155.1875 201.292969 C 155.1875 201.292969 155.09375 201.523438 155 201.945312 C 154.90625 202.367188 154.765625 202.976562 154.625 203.722656 C 154.390625 205.21875 154.296875 207.277344 154.578125 209.378906 C 154.90625 211.484375 155.699219 213.683594 156.964844 215.316406 Z M 156.964844 215.316406 " fill-opacity="1" fill-rule="nonzero"/><path fill="#0e543d" d="M 129.144531 199 C 127.507812 198.484375 126.476562 198.207031 126.476562 198.207031 C 126.476562 198.207031 126.570312 198.484375 126.757812 198.90625 C 126.992188 199.328125 127.320312 199.980469 127.695312 200.730469 C 128.113281 201.480469 128.628906 202.320312 129.191406 203.253906 C 129.472656 203.722656 129.796875 204.191406 130.125 204.609375 L 130.40625 204.984375 L 130.734375 205.40625 C 130.96875 205.6875 131.199219 205.96875 131.433594 206.246094 C 133.304688 208.492188 135.644531 210.222656 137.933594 210.921875 C 140.226562 211.671875 142.421875 211.4375 144.339844 209.988281 C 143.824219 207.695312 142.515625 206.152344 140.785156 204.796875 C 140.363281 204.472656 139.898438 204.144531 139.429688 203.816406 C 138.960938 203.488281 138.449219 203.207031 137.933594 202.882812 C 137.417969 202.554688 136.90625 202.273438 136.34375 201.945312 C 135.828125 201.664062 135.316406 201.433594 134.800781 201.152344 C 132.835938 200.261719 130.734375 199.515625 129.144531 199 Z M 129.144531 199 " fill-opacity="1" fill-rule="nonzero"/><path fill="#0e543d" d="M 144.945312 203.023438 C 145.554688 204.984375 146.957031 206.574219 149.109375 207.089844 C 150.605469 205.265625 151.070312 203.253906 151.210938 201.339844 C 151.304688 199.421875 151.070312 197.644531 150.886719 196.148438 C 150.839844 195.492188 150.558594 194.417969 150.324219 193.578125 C 150.089844 192.6875 149.808594 191.941406 149.574219 191.285156 C 149.34375 190.632812 149.109375 190.117188 148.96875 189.742188 C 148.828125 189.367188 148.734375 189.136719 148.734375 189.136719 C 148.734375 189.136719 148.59375 189.367188 148.3125 189.742188 C 148.078125 190.117188 147.753906 190.679688 147.378906 191.378906 C 146.675781 192.734375 145.789062 194.652344 145.226562 196.757812 C 145.085938 197.269531 144.945312 197.832031 144.851562 198.394531 C 144.761719 198.90625 144.667969 199.421875 144.621094 199.9375 C 144.574219 200.449219 144.621094 200.964844 144.667969 201.523438 C 144.667969 202.039062 144.761719 202.554688 144.945312 203.023438 Z M 144.945312 203.023438 " fill-opacity="1" fill-rule="nonzero"/><path fill="#0e543d" d="M 126.664062 191.003906 C 127.039062 191.472656 127.460938 191.847656 127.929688 192.222656 C 128.347656 192.59375 128.816406 192.921875 129.285156 193.25 C 131.152344 194.464844 133.257812 194.980469 135.503906 194.277344 C 135.6875 193.15625 135.597656 192.128906 135.316406 191.144531 C 135.175781 190.679688 134.941406 190.210938 134.707031 189.742188 C 134.472656 189.273438 134.144531 188.855469 133.867188 188.433594 C 132.648438 186.75 130.78125 185.253906 128.863281 183.992188 C 127.039062 182.683594 125.074219 181.5625 123.578125 180.71875 C 122.082031 179.925781 121.101562 179.410156 121.101562 179.410156 C 121.101562 179.410156 121.148438 179.691406 121.242188 180.203125 C 121.382812 180.671875 121.570312 181.375 121.851562 182.214844 C 122.410156 183.851562 123.207031 186.097656 124.515625 188.105469 C 125.167969 189.136719 125.871094 190.117188 126.664062 191.003906 Z M 126.664062 191.003906 " fill-opacity="1" fill-rule="nonzero"/><path fill="#0e543d" d="M 138.914062 190.164062 C 139.335938 191.050781 139.992188 191.847656 140.925781 192.453125 C 142.984375 191.285156 144.152344 189.507812 144.761719 187.59375 C 144.898438 187.125 145.039062 186.609375 145.132812 186.144531 C 145.179688 185.910156 145.226562 185.628906 145.226562 185.394531 C 145.273438 185.160156 145.320312 184.878906 145.320312 184.648438 C 145.460938 183.617188 145.460938 182.636719 145.460938 181.652344 C 145.320312 179.738281 145.226562 177.867188 144.945312 176.558594 C 144.851562 175.902344 144.714844 175.34375 144.621094 174.96875 C 144.574219 174.59375 144.527344 174.359375 144.527344 174.359375 C 144.527344 174.359375 144.339844 174.546875 144.011719 174.875 C 143.683594 175.203125 143.265625 175.667969 142.796875 176.230469 C 141.8125 177.398438 140.644531 179.082031 139.664062 181.046875 C 138.726562 183.011719 138.121094 185.160156 138.167969 187.265625 C 138.167969 187.777344 138.261719 188.292969 138.355469 188.761719 C 138.542969 189.230469 138.683594 189.695312 138.914062 190.164062 Z M 138.914062 190.164062 " fill-opacity="1" fill-rule="nonzero"/><g clip-path="url(#98f446f41a)"><path fill="#0e543d" d="M 122.691406 172.351562 C 122.972656 172.863281 123.300781 173.378906 123.625 173.847656 C 124 174.3125 124.375 174.734375 124.796875 175.109375 C 126.433594 176.699219 128.347656 177.585938 130.734375 177.351562 C 131.152344 176.277344 131.246094 175.25 131.152344 174.265625 C 131.105469 173.753906 130.96875 173.285156 130.828125 172.816406 C 130.6875 172.351562 130.5 171.835938 130.3125 171.367188 C 129.890625 170.433594 129.285156 169.496094 128.582031 168.5625 C 128.207031 168.09375 127.882812 167.675781 127.507812 167.207031 C 127.132812 166.785156 126.757812 166.316406 126.386719 165.898438 C 124.84375 164.214844 123.160156 162.625 121.941406 161.503906 C 120.726562 160.332031 119.886719 159.632812 119.886719 159.632812 C 119.886719 159.632812 119.839844 160.800781 119.980469 162.578125 C 120.027344 163.464844 120.214844 164.496094 120.398438 165.570312 C 120.492188 166.132812 120.632812 166.691406 120.773438 167.253906 C 120.914062 167.816406 121.054688 168.421875 121.289062 168.984375 C 121.617188 170.152344 122.128906 171.273438 122.691406 172.351562 Z M 122.691406 172.351562 " fill-opacity="1" fill-rule="nonzero"/></g><path fill="#0e543d" d="M 136.34375 176.089844 C 138.589844 175.296875 140.085938 173.847656 141.066406 172.117188 C 141.300781 171.695312 141.535156 171.226562 141.722656 170.808594 C 141.953125 170.339844 142.140625 169.871094 142.28125 169.402344 C 142.609375 168.46875 142.84375 167.535156 142.984375 166.597656 C 143.171875 165.664062 143.355469 164.777344 143.449219 163.933594 C 143.496094 163.511719 143.542969 163.140625 143.542969 162.71875 C 143.589844 162.34375 143.589844 161.96875 143.636719 161.691406 C 143.777344 160.378906 143.777344 159.539062 143.777344 159.539062 C 143.777344 159.539062 142.890625 160.007812 141.675781 160.894531 C 141.347656 161.128906 141.019531 161.363281 140.691406 161.644531 C 140.316406 161.921875 139.992188 162.203125 139.664062 162.53125 C 138.960938 163.1875 138.261719 163.933594 137.558594 164.777344 C 137.230469 165.195312 136.90625 165.617188 136.578125 166.085938 C 136.4375 166.316406 136.25 166.550781 136.109375 166.785156 C 135.96875 167.019531 135.875 167.253906 135.734375 167.488281 C 135.269531 168.421875 134.894531 169.449219 134.707031 170.480469 C 134.613281 170.992188 134.566406 171.507812 134.566406 171.976562 C 134.613281 172.488281 134.660156 172.957031 134.800781 173.425781 C 135.082031 174.453125 135.550781 175.34375 136.34375 176.089844 Z M 136.34375 176.089844 " fill-opacity="1" fill-rule="nonzero"/><path fill="#0e543d" d="M 128.160156 147.710938 C 127.648438 146.679688 127.085938 145.699219 126.523438 144.8125 C 125.964844 143.875 125.449219 143.035156 125.027344 142.332031 C 124.140625 140.929688 123.484375 139.996094 123.484375 139.996094 C 123.484375 139.996094 123.160156 141.117188 122.785156 142.847656 C 122.644531 143.734375 122.550781 144.765625 122.457031 145.886719 C 122.410156 146.445312 122.363281 147.007812 122.363281 147.617188 C 122.363281 148.222656 122.410156 148.832031 122.457031 149.441406 C 122.550781 150.65625 122.738281 151.871094 123.019531 153.039062 C 123.347656 154.207031 123.8125 155.285156 124.375 156.265625 C 125.496094 158.183594 127.273438 159.539062 129.609375 159.867188 C 129.9375 159.398438 130.125 158.929688 130.3125 158.417969 C 130.5 157.949219 130.640625 157.433594 130.6875 156.96875 C 130.828125 155.984375 130.78125 154.957031 130.546875 153.929688 C 130.359375 152.898438 130.03125 151.871094 129.5625 150.84375 C 129.238281 149.8125 128.675781 148.738281 128.160156 147.710938 Z M 128.160156 147.710938 " fill-opacity="1" fill-rule="nonzero"/><path fill="#0e543d" d="M 140.878906 156.6875 C 141.582031 155.984375 142.1875 155.238281 142.703125 154.394531 C 143.265625 153.601562 143.730469 152.757812 144.152344 151.917969 C 144.339844 151.496094 144.527344 151.074219 144.714844 150.703125 C 144.898438 150.28125 145.085938 149.90625 145.226562 149.53125 C 145.554688 148.785156 145.789062 148.082031 145.976562 147.476562 C 146.441406 146.261719 146.628906 145.464844 146.628906 145.464844 C 146.628906 145.464844 145.648438 145.699219 144.246094 146.214844 C 142.796875 146.726562 141.019531 147.617188 139.289062 148.878906 C 138.867188 149.207031 138.402344 149.53125 138.027344 149.90625 C 137.652344 150.28125 137.277344 150.65625 136.90625 151.027344 C 136.203125 151.824219 135.550781 152.710938 135.128906 153.601562 C 134.753906 154.535156 134.519531 155.519531 134.519531 156.453125 C 134.519531 156.921875 134.566406 157.433594 134.707031 157.902344 C 134.847656 158.371094 135.082031 158.882812 135.363281 159.304688 C 137.699219 159.164062 139.429688 158.089844 140.878906 156.6875 Z M 140.878906 156.6875 " fill-opacity="1" fill-rule="nonzero"/><path fill="#0e543d" d="M 133.960938 141.539062 C 134.285156 141.117188 134.519531 140.695312 134.707031 140.230469 C 134.894531 139.761719 135.035156 139.292969 135.128906 138.824219 C 135.222656 138.359375 135.269531 137.84375 135.316406 137.328125 C 135.410156 136.300781 135.316406 135.226562 135.128906 134.105469 C 134.941406 132.980469 134.753906 131.859375 134.472656 130.785156 C 133.914062 128.539062 133.304688 126.4375 132.742188 124.847656 C 132.183594 123.257812 131.808594 122.226562 131.808594 122.226562 C 131.808594 122.226562 131.667969 122.460938 131.433594 122.929688 C 131.199219 123.398438 130.875 124.003906 130.546875 124.800781 C 129.796875 126.34375 129.050781 128.585938 128.582031 130.972656 C 128.394531 132.1875 128.253906 133.402344 128.253906 134.570312 C 128.253906 135.179688 128.300781 135.738281 128.394531 136.347656 C 128.488281 136.910156 128.582031 137.46875 128.769531 138.03125 C 129.097656 139.105469 129.5625 140.042969 130.265625 140.882812 C 130.96875 141.679688 131.855469 142.378906 132.929688 142.800781 C 133.351562 142.332031 133.679688 141.957031 133.960938 141.539062 Z M 133.960938 141.539062 " fill-opacity="1" fill-rule="nonzero"/><path fill="#0e543d" d="M 152.566406 133.027344 C 152.753906 132.699219 152.894531 132.515625 152.894531 132.515625 C 152.894531 132.515625 152.660156 132.515625 152.195312 132.515625 C 151.726562 132.515625 151.117188 132.5625 150.371094 132.652344 C 149.621094 132.746094 148.734375 132.886719 147.800781 133.121094 C 147.332031 133.214844 146.816406 133.355469 146.351562 133.496094 C 145.882812 133.636719 145.367188 133.824219 144.898438 134.011719 C 143.917969 134.382812 142.9375 134.851562 142.046875 135.460938 C 141.160156 136.066406 140.363281 136.722656 139.710938 137.515625 C 139.382812 137.890625 139.101562 138.3125 138.914062 138.734375 C 138.683594 139.152344 138.542969 139.621094 138.402344 140.089844 C 138.261719 140.554688 138.214844 141.023438 138.214844 141.539062 C 138.261719 142.050781 138.355469 142.566406 138.496094 143.082031 C 139.664062 143.269531 140.738281 143.222656 141.722656 142.988281 C 142.703125 142.753906 143.636719 142.378906 144.527344 141.910156 C 144.945312 141.679688 145.367188 141.398438 145.742188 141.117188 C 145.929688 140.976562 146.117188 140.835938 146.304688 140.648438 C 146.488281 140.507812 146.675781 140.320312 146.863281 140.183594 C 147.613281 139.527344 148.265625 138.871094 148.828125 138.125 C 149.433594 137.421875 149.996094 136.722656 150.464844 136.066406 C 150.605469 135.878906 150.699219 135.738281 150.792969 135.554688 C 150.933594 135.414062 151.023438 135.226562 151.117188 135.085938 C 151.351562 134.757812 151.539062 134.476562 151.726562 134.242188 C 152.101562 133.824219 152.382812 133.355469 152.566406 133.027344 Z M 152.566406 133.027344 " fill-opacity="1" fill-rule="nonzero"/><path fill="#0e543d" d="M 140.363281 127.089844 C 141.394531 126.574219 142.140625 125.921875 142.703125 125.125 C 143.308594 124.378906 143.730469 123.445312 144.011719 122.460938 C 144.621094 120.496094 144.714844 118.160156 144.714844 115.914062 C 144.714844 115.355469 144.667969 114.792969 144.621094 114.234375 C 144.621094 113.671875 144.574219 113.15625 144.527344 112.644531 C 144.433594 111.613281 144.339844 110.632812 144.246094 109.789062 C 144.058594 108.152344 143.871094 107.03125 143.871094 107.03125 C 143.871094 107.03125 143.683594 107.265625 143.355469 107.59375 C 143.03125 107.96875 142.5625 108.480469 142.09375 109.183594 C 141.582031 109.882812 141.019531 110.679688 140.457031 111.613281 C 139.898438 112.550781 139.335938 113.578125 138.867188 114.652344 C 138.402344 115.777344 138.027344 116.898438 137.746094 118.019531 C 137.511719 119.1875 137.371094 120.3125 137.417969 121.433594 C 137.605469 123.675781 138.496094 125.6875 140.363281 127.089844 Z M 140.363281 127.089844 " fill-opacity="1" fill-rule="nonzero"/><path fill="#0e543d" d="M 156.824219 125.921875 C 157.570312 125.359375 158.320312 124.800781 158.925781 124.238281 C 159.535156 123.675781 160.140625 123.164062 160.609375 122.695312 C 161.078125 122.226562 161.453125 121.855469 161.730469 121.574219 C 162.011719 121.292969 162.152344 121.152344 162.152344 121.152344 C 162.152344 121.152344 161.171875 120.917969 159.628906 120.777344 C 158.878906 120.683594 157.992188 120.683594 157.011719 120.683594 C 156.027344 120.683594 155 120.730469 153.972656 120.917969 C 151.867188 121.246094 149.761719 121.945312 148.125 123.164062 C 147.332031 123.769531 146.675781 124.519531 146.210938 125.359375 C 145.789062 126.203125 145.554688 127.183594 145.601562 128.257812 C 147.800781 129.195312 149.855469 129.148438 151.726562 128.585938 C 152.660156 128.304688 153.597656 127.933594 154.4375 127.464844 C 155.28125 126.996094 156.074219 126.484375 156.824219 125.921875 Z M 156.824219 125.921875 " fill-opacity="1" fill-rule="nonzero"/><g clip-path="url(#2602cbbec2)"><path fill="#0e543d" d="M 152.613281 214.992188 C 158.832031 220.132812 166.359375 223.640625 173.796875 226.632812 C 179.875 229.0625 187.636719 233.085938 195.582031 236.824219 C 188.429688 239.023438 181.417969 240.847656 175.757812 241.828125 C 175.011719 241.96875 178.84375 245.804688 179.546875 245.617188 C 186.09375 243.652344 192.777344 241.222656 199.324219 238.601562 C 206.476562 241.875 213.585938 244.632812 219.429688 245.617188 C 220.175781 245.757812 222.421875 241.828125 221.71875 241.6875 C 216.203125 240.753906 209.796875 239.117188 203.109375 237.011719 C 214.144531 232.382812 224.710938 227.148438 233.875 222.191406 C 243.835938 216.769531 251.269531 209.101562 256.226562 198.859375 C 260.761719 189.414062 263.988281 178.941406 264.453125 168.421875 C 265.109375 153.835938 260.199219 139.574219 252.625 127.277344 C 250.382812 123.675781 247.902344 120.078125 245.144531 116.757812 C 245.378906 115.820312 245.425781 114.933594 245.238281 114.09375 C 245.050781 113.109375 244.675781 112.128906 244.070312 111.238281 C 242.898438 109.464844 241.03125 108.0625 239.113281 106.984375 C 237.195312 105.910156 235.183594 105.253906 233.6875 104.929688 C 232.941406 104.742188 232.332031 104.648438 231.914062 104.554688 C 231.679688 104.554688 231.539062 104.507812 231.398438 104.507812 C 231.304688 104.507812 231.257812 104.507812 231.257812 104.507812 C 231.257812 104.507812 231.304688 104.554688 231.304688 104.648438 C 231.351562 104.742188 231.445312 104.882812 231.539062 105.070312 C 231.726562 105.441406 232.007812 106.003906 232.378906 106.65625 C 233.082031 107.96875 234.0625 109.695312 235.183594 111.378906 C 235.746094 112.222656 236.402344 113.0625 237.054688 113.8125 C 237.382812 114.1875 237.757812 114.558594 238.132812 114.886719 C 238.503906 115.214844 238.878906 115.542969 239.253906 115.820312 C 240.046875 116.382812 240.890625 116.804688 241.871094 117.039062 C 242.574219 117.226562 243.367188 117.320312 244.164062 117.226562 C 249.445312 123.488281 253.792969 130.738281 257.066406 138.03125 C 261.273438 147.335938 263.519531 157.433594 263.285156 167.628906 C 263.003906 178.753906 259.3125 190.023438 254.308594 199.890625 C 250.429688 207.558594 244.769531 213.820312 237.570312 218.496094 C 231.117188 222.660156 224.011719 225.792969 216.949219 228.878906 C 211.667969 231.167969 205.402344 233.507812 199.042969 235.609375 C 185.4375 231.074219 171.222656 224.902344 161.359375 219.339844 C 156.214844 216.441406 151.539062 212.886719 147.660156 208.351562 C 143.824219 203.863281 141.019531 198.53125 138.773438 193.0625 C 134.519531 182.730469 131.855469 172.023438 132.511719 160.753906 C 133.257812 147.664062 138.402344 135.132812 145.601562 124.238281 C 147.425781 121.433594 149.433594 118.675781 151.585938 116.054688 C 152.382812 116.101562 153.082031 116.007812 153.785156 115.820312 C 154.71875 115.589844 155.558594 115.121094 156.402344 114.605469 C 156.824219 114.324219 157.195312 114 157.523438 113.671875 C 157.898438 113.34375 158.226562 112.96875 158.597656 112.597656 C 159.253906 111.800781 159.910156 111.007812 160.46875 110.164062 C 161.59375 108.480469 162.574219 106.75 163.273438 105.441406 C 163.648438 104.789062 163.929688 104.226562 164.117188 103.851562 C 164.210938 103.664062 164.304688 103.527344 164.351562 103.433594 C 164.445312 103.433594 164.492188 103.386719 164.492188 103.386719 C 164.492188 103.386719 164.445312 103.386719 164.351562 103.386719 C 164.257812 103.386719 164.070312 103.433594 163.835938 103.433594 C 163.414062 103.480469 162.761719 103.617188 162.011719 103.757812 C 160.515625 104.132812 158.507812 104.835938 156.589844 105.863281 C 154.671875 106.9375 152.800781 108.339844 151.632812 110.117188 C 151.023438 110.960938 150.652344 111.941406 150.464844 112.96875 C 150.324219 113.8125 150.324219 114.699219 150.558594 115.589844 C 145.507812 121.574219 141.347656 128.492188 138.074219 135.460938 C 134.054688 144.015625 131.667969 153.320312 131.292969 162.765625 C 130.875 173.660156 133.820312 184.085938 137.933594 194.042969 C 141.207031 202.085938 145.929688 209.378906 152.613281 214.992188 Z M 152.613281 214.992188 " fill-opacity="1" fill-rule="nonzero"/></g><path fill="#0e543d" d="M 232.285156 234.722656 C 234.765625 234.300781 237.054688 233.507812 238.691406 232.804688 C 240.328125 232.105469 241.355469 231.496094 241.355469 231.496094 C 241.355469 231.496094 240.328125 231.074219 238.691406 230.5625 C 237.054688 230 234.90625 229.34375 232.660156 228.785156 C 230.371094 228.222656 228.03125 227.847656 225.835938 227.941406 C 224.757812 227.988281 223.683594 228.175781 222.703125 228.550781 C 221.671875 228.925781 220.738281 229.4375 219.710938 230.234375 C 220.363281 232.523438 222.375 233.925781 224.710938 234.582031 C 227.144531 235.234375 229.808594 235.1875 232.285156 234.722656 Z M 232.285156 234.722656 " fill-opacity="1" fill-rule="nonzero"/><path fill="#0e543d" d="M 220.082031 226.585938 C 221.113281 226.398438 222.046875 225.933594 222.886719 225.277344 C 224.570312 224.015625 225.882812 222.050781 226.722656 220.085938 C 227.609375 218.125 228.078125 216.066406 228.359375 214.523438 C 228.5 213.773438 228.546875 213.121094 228.59375 212.699219 C 228.640625 212.230469 228.640625 212 228.640625 212 C 228.640625 212 227.84375 212.417969 226.675781 213.121094 C 225.507812 213.867188 224.011719 214.851562 222.515625 216.066406 C 221.019531 217.28125 219.570312 218.683594 218.539062 220.320312 C 217.511719 221.957031 216.855469 223.828125 216.949219 226.210938 C 217.980469 226.726562 219.101562 226.773438 220.082031 226.585938 Z M 220.082031 226.585938 " fill-opacity="1" fill-rule="nonzero"/><path fill="#0e543d" d="M 249.070312 217.890625 C 246.734375 217.984375 244.304688 218.125 242.292969 218.777344 C 240.234375 219.433594 238.503906 220.507812 237.382812 222.519531 C 238.785156 224.4375 240.796875 225.324219 243.085938 225.417969 C 245.378906 225.511719 247.855469 224.855469 250.195312 223.828125 C 252.484375 222.800781 254.589844 221.351562 256.085938 220.132812 C 256.832031 219.527344 257.441406 218.964844 257.816406 218.589844 C 258.234375 218.21875 258.421875 217.9375 258.421875 217.9375 C 258.421875 217.9375 257.300781 217.9375 255.476562 217.890625 C 253.746094 217.890625 251.410156 217.84375 249.070312 217.890625 Z M 249.070312 217.890625 " fill-opacity="1" fill-rule="nonzero"/><path fill="#0e543d" d="M 233.410156 219.011719 C 235.652344 219.152344 237.476562 218.03125 238.738281 216.394531 C 240.046875 214.757812 240.796875 212.558594 241.125 210.457031 C 241.449219 208.304688 241.355469 206.292969 241.078125 204.796875 C 240.984375 204.050781 240.84375 203.441406 240.703125 203.023438 C 240.609375 202.601562 240.515625 202.367188 240.515625 202.367188 C 240.515625 202.367188 240.375 202.507812 240.140625 202.742188 C 239.90625 203.023438 239.535156 203.394531 239.160156 203.863281 C 238.316406 204.796875 237.195312 206.105469 236.074219 207.648438 C 234.953125 209.191406 233.875 210.921875 233.269531 212.839844 C 232.660156 214.757812 232.472656 216.816406 233.410156 219.011719 Z M 233.410156 219.011719 " fill-opacity="1" fill-rule="nonzero"/><path fill="#0e543d" d="M 264.265625 207.371094 C 264.5 207.089844 264.734375 206.808594 264.96875 206.527344 L 265.296875 206.105469 L 265.578125 205.734375 C 265.902344 205.265625 266.230469 204.796875 266.511719 204.378906 C 267.121094 203.488281 267.585938 202.601562 268.007812 201.898438 C 268.429688 201.152344 268.757812 200.542969 268.941406 200.074219 C 269.175781 199.609375 269.269531 199.375 269.269531 199.375 C 269.269531 199.375 268.242188 199.703125 266.605469 200.167969 C 265.015625 200.683594 262.910156 201.433594 260.855469 202.367188 C 260.339844 202.601562 259.824219 202.882812 259.3125 203.160156 C 258.75 203.488281 258.234375 203.769531 257.722656 204.097656 C 257.207031 204.425781 256.691406 204.703125 256.226562 205.03125 C 255.757812 205.359375 255.289062 205.6875 254.871094 206.015625 C 253.140625 207.371094 251.878906 208.914062 251.316406 211.203125 C 253.234375 212.605469 255.429688 212.886719 257.722656 212.140625 C 260.058594 211.296875 262.351562 209.613281 264.265625 207.371094 Z M 264.265625 207.371094 " fill-opacity="1" fill-rule="nonzero"/><path fill="#0e543d" d="M 250.519531 197.832031 C 249.914062 195.726562 249.070312 193.8125 248.371094 192.453125 C 247.996094 191.753906 247.714844 191.238281 247.433594 190.816406 C 247.203125 190.445312 247.015625 190.210938 247.015625 190.210938 C 247.015625 190.210938 246.921875 190.445312 246.78125 190.816406 C 246.640625 191.191406 246.40625 191.707031 246.125 192.359375 C 245.890625 193.015625 245.613281 193.8125 245.378906 194.652344 C 245.144531 195.492188 244.863281 196.570312 244.816406 197.222656 C 244.628906 198.71875 244.347656 200.542969 244.488281 202.414062 C 244.628906 204.285156 245.097656 206.292969 246.59375 208.164062 C 248.746094 207.648438 250.148438 206.0625 250.753906 204.097656 C 250.894531 203.582031 251.035156 203.113281 251.082031 202.554688 C 251.128906 202.039062 251.128906 201.480469 251.128906 200.964844 C 251.082031 200.449219 250.988281 199.890625 250.894531 199.421875 C 250.800781 198.90625 250.660156 198.394531 250.519531 197.832031 Z M 250.519531 197.832031 " fill-opacity="1" fill-rule="nonzero"/><path fill="#0e543d" d="M 274.414062 181.328125 C 274.554688 180.859375 274.601562 180.53125 274.601562 180.53125 C 274.601562 180.53125 273.664062 181.046875 272.121094 181.839844 C 270.625 182.636719 268.710938 183.804688 266.839844 185.113281 C 264.921875 186.421875 263.050781 187.871094 261.835938 189.554688 C 261.554688 189.976562 261.226562 190.398438 260.996094 190.863281 C 260.761719 191.285156 260.527344 191.753906 260.386719 192.269531 C 260.105469 193.25 260.011719 194.277344 260.199219 195.398438 C 262.445312 196.054688 264.546875 195.539062 266.417969 194.324219 C 266.886719 194.042969 267.351562 193.671875 267.773438 193.296875 C 268.195312 192.921875 268.664062 192.5 269.035156 192.082031 C 269.785156 191.191406 270.484375 190.210938 271.140625 189.183594 C 272.449219 187.171875 273.246094 184.972656 273.804688 183.289062 C 274.085938 182.542969 274.320312 181.839844 274.414062 181.328125 Z M 274.414062 181.328125 " fill-opacity="1" fill-rule="nonzero"/><path fill="#0e543d" d="M 254.824219 193.578125 C 255.710938 192.921875 256.367188 192.128906 256.832031 191.238281 C 257.066406 190.816406 257.207031 190.304688 257.347656 189.835938 C 257.488281 189.367188 257.535156 188.855469 257.535156 188.339844 C 257.535156 186.234375 256.925781 184.085938 256.039062 182.121094 C 255.054688 180.15625 253.839844 178.476562 252.90625 177.304688 C 252.4375 176.699219 252.015625 176.230469 251.691406 175.902344 C 251.363281 175.574219 251.175781 175.390625 251.175781 175.390625 C 251.175781 175.390625 251.128906 175.621094 251.082031 175.996094 C 250.988281 176.371094 250.894531 176.933594 250.753906 177.585938 C 250.519531 178.941406 250.382812 180.765625 250.289062 182.683594 C 250.242188 183.664062 250.289062 184.648438 250.425781 185.675781 C 250.472656 185.957031 250.519531 186.191406 250.519531 186.421875 C 250.566406 186.65625 250.566406 186.9375 250.613281 187.171875 C 250.707031 187.6875 250.847656 188.152344 250.988281 188.621094 C 251.550781 190.632812 252.765625 192.359375 254.824219 193.578125 Z M 254.824219 193.578125 " fill-opacity="1" fill-rule="nonzero"/><g clip-path="url(#c30f77470c)"><path fill="#0e543d" d="M 269.363281 167.019531 C 268.988281 167.441406 268.617188 167.859375 268.242188 168.328125 C 267.867188 168.75 267.539062 169.21875 267.167969 169.683594 C 266.464844 170.574219 265.855469 171.507812 265.4375 172.488281 C 265.203125 172.957031 265.0625 173.472656 264.921875 173.941406 C 264.78125 174.40625 264.640625 174.921875 264.59375 175.390625 C 264.5 176.371094 264.59375 177.398438 265.015625 178.476562 C 267.351562 178.707031 269.316406 177.773438 270.953125 176.230469 C 271.375 175.855469 271.75 175.4375 272.121094 174.96875 C 272.449219 174.5 272.777344 173.984375 273.058594 173.472656 C 273.617188 172.441406 274.132812 171.273438 274.554688 170.152344 C 274.789062 169.589844 274.925781 168.984375 275.066406 168.421875 C 275.207031 167.859375 275.300781 167.300781 275.441406 166.738281 C 275.628906 165.617188 275.816406 164.636719 275.863281 163.746094 C 275.957031 161.96875 275.957031 160.800781 275.957031 160.800781 C 275.957031 160.800781 275.113281 161.503906 273.851562 162.671875 C 272.636719 163.792969 270.90625 165.335938 269.363281 167.019531 Z M 269.363281 167.019531 " fill-opacity="1" fill-rule="nonzero"/></g><path fill="#0e543d" d="M 260.902344 174.59375 C 261.042969 174.125 261.089844 173.613281 261.136719 173.144531 C 261.136719 172.628906 261.089844 172.164062 260.996094 171.648438 C 260.808594 170.621094 260.433594 169.636719 259.964844 168.703125 C 259.871094 168.46875 259.730469 168.234375 259.59375 168 C 259.453125 167.769531 259.3125 167.535156 259.125 167.300781 C 258.796875 166.832031 258.46875 166.410156 258.140625 165.992188 C 257.441406 165.148438 256.738281 164.402344 256.039062 163.746094 C 255.710938 163.417969 255.335938 163.140625 255.011719 162.859375 C 254.683594 162.578125 254.308594 162.34375 254.027344 162.109375 C 252.765625 161.222656 251.925781 160.753906 251.925781 160.753906 C 251.925781 160.753906 251.925781 161.597656 252.0625 162.90625 C 252.109375 163.234375 252.109375 163.558594 252.15625 163.980469 C 252.203125 164.355469 252.203125 164.730469 252.25 165.148438 C 252.34375 165.992188 252.53125 166.878906 252.71875 167.816406 C 252.859375 168.75 253.09375 169.683594 253.421875 170.621094 C 253.605469 171.085938 253.792969 171.554688 253.980469 172.023438 C 254.167969 172.488281 254.402344 172.910156 254.636719 173.332031 C 255.617188 175.0625 257.113281 176.511719 259.359375 177.304688 C 260.152344 176.417969 260.621094 175.527344 260.902344 174.59375 Z M 260.902344 174.59375 " fill-opacity="1" fill-rule="nonzero"/><path fill="#0e543d" d="M 265.109375 155.050781 C 264.875 156.078125 264.78125 157.0625 264.96875 158.042969 C 265.0625 158.558594 265.203125 159.023438 265.390625 159.492188 C 265.578125 159.960938 265.808594 160.472656 266.089844 160.941406 C 268.429688 160.613281 270.207031 159.257812 271.328125 157.339844 C 271.886719 156.359375 272.355469 155.285156 272.683594 154.113281 C 273.011719 152.945312 273.152344 151.730469 273.246094 150.515625 C 273.292969 149.90625 273.339844 149.300781 273.339844 148.691406 C 273.339844 148.082031 273.292969 147.523438 273.246094 146.960938 C 273.152344 145.839844 273.058594 144.8125 272.917969 143.921875 C 272.542969 142.191406 272.214844 141.070312 272.214844 141.070312 C 272.214844 141.070312 271.5625 142.003906 270.671875 143.40625 C 270.253906 144.109375 269.738281 144.949219 269.175781 145.886719 C 268.617188 146.820312 268.054688 147.804688 267.539062 148.785156 C 267.027344 149.765625 266.511719 150.84375 266.042969 151.871094 C 265.625 152.992188 265.296875 154.023438 265.109375 155.050781 Z M 265.109375 155.050781 " fill-opacity="1" fill-rule="nonzero"/><path fill="#0e543d" d="M 260.621094 154.722656 C 260.199219 153.789062 259.546875 152.945312 258.84375 152.152344 C 258.515625 151.777344 258.140625 151.355469 257.722656 151.027344 C 257.347656 150.65625 256.878906 150.328125 256.460938 150.046875 C 254.730469 148.785156 252.953125 147.898438 251.503906 147.382812 C 250.054688 146.867188 249.117188 146.632812 249.117188 146.632812 C 249.117188 146.632812 249.304688 147.429688 249.773438 148.644531 C 249.960938 149.253906 250.195312 149.953125 250.519531 150.703125 C 250.660156 151.074219 250.847656 151.449219 251.035156 151.871094 C 251.222656 152.292969 251.363281 152.664062 251.597656 153.085938 C 251.96875 153.929688 252.484375 154.769531 253.046875 155.566406 C 253.558594 156.359375 254.167969 157.152344 254.871094 157.855469 C 256.320312 159.210938 258.003906 160.332031 260.386719 160.519531 C 260.667969 160.054688 260.902344 159.585938 261.042969 159.117188 C 261.179688 158.652344 261.226562 158.136719 261.226562 157.667969 C 261.226562 156.640625 261.042969 155.65625 260.621094 154.722656 Z M 260.621094 154.722656 " fill-opacity="1" fill-rule="nonzero"/><path fill="#0e543d" d="M 263.847656 123.257812 C 263.847656 123.257812 263.472656 124.285156 262.910156 125.875 C 262.351562 127.464844 261.742188 129.570312 261.179688 131.8125 C 260.902344 132.933594 260.714844 134.058594 260.527344 135.132812 C 260.339844 136.253906 260.292969 137.328125 260.339844 138.359375 C 260.386719 138.871094 260.433594 139.386719 260.527344 139.855469 C 260.621094 140.367188 260.761719 140.835938 260.949219 141.257812 C 261.136719 141.726562 261.414062 142.144531 261.695312 142.566406 C 261.976562 142.988281 262.304688 143.359375 262.722656 143.78125 C 263.800781 143.316406 264.6875 142.660156 265.390625 141.863281 C 266.089844 141.023438 266.558594 140.089844 266.886719 139.011719 C 267.027344 138.5 267.167969 137.9375 267.261719 137.328125 C 267.351562 136.769531 267.398438 136.160156 267.398438 135.554688 C 267.398438 134.382812 267.261719 133.121094 267.074219 131.953125 C 266.605469 129.613281 265.855469 127.371094 265.109375 125.78125 C 264.734375 124.984375 264.453125 124.332031 264.21875 123.910156 C 263.988281 123.488281 263.847656 123.257812 263.847656 123.257812 Z M 263.847656 123.257812 " fill-opacity="1" fill-rule="nonzero"/><path fill="#0e543d" d="M 256.832031 139.902344 C 256.597656 139.480469 256.367188 139.058594 256.039062 138.6875 C 255.382812 137.890625 254.589844 137.234375 253.699219 136.628906 C 252.8125 136.019531 251.832031 135.554688 250.847656 135.179688 C 250.335938 134.992188 249.867188 134.804688 249.398438 134.664062 C 248.929688 134.523438 248.417969 134.382812 247.949219 134.289062 C 247.015625 134.058594 246.125 133.917969 245.378906 133.824219 C 244.628906 133.730469 244.023438 133.683594 243.554688 133.683594 C 243.085938 133.683594 242.851562 133.683594 242.851562 133.683594 C 242.851562 133.683594 242.945312 133.871094 243.179688 134.195312 C 243.367188 134.523438 243.648438 134.992188 243.976562 135.507812 C 244.164062 135.785156 244.347656 136.066406 244.582031 136.347656 C 244.675781 136.488281 244.816406 136.675781 244.910156 136.816406 C 245.003906 136.957031 245.144531 137.144531 245.238281 137.328125 C 245.707031 137.984375 246.265625 138.6875 246.921875 139.386719 C 247.480469 140.089844 248.136719 140.789062 248.886719 141.398438 C 249.070312 141.585938 249.257812 141.726562 249.445312 141.863281 C 249.632812 142.003906 249.820312 142.144531 250.007812 142.332031 C 250.382812 142.613281 250.800781 142.894531 251.222656 143.128906 C 252.0625 143.59375 253.046875 143.96875 254.027344 144.203125 C 255.011719 144.4375 256.085938 144.484375 257.253906 144.296875 C 257.394531 143.78125 257.535156 143.269531 257.535156 142.753906 C 257.535156 142.285156 257.488281 141.773438 257.347656 141.304688 C 257.207031 140.789062 257.066406 140.320312 256.832031 139.902344 Z M 256.832031 139.902344 " fill-opacity="1" fill-rule="nonzero"/><path fill="#0e543d" d="M 255.335938 128.210938 C 257.207031 126.808594 258.09375 124.800781 258.234375 122.601562 C 258.28125 121.527344 258.1875 120.359375 257.910156 119.1875 C 257.675781 118.019531 257.253906 116.898438 256.785156 115.820312 C 256.320312 114.746094 255.757812 113.71875 255.195312 112.78125 C 254.636719 111.847656 254.074219 111.054688 253.558594 110.351562 C 253.046875 109.652344 252.625 109.136719 252.296875 108.761719 C 251.96875 108.386719 251.785156 108.199219 251.785156 108.199219 C 251.785156 108.199219 251.597656 109.277344 251.410156 110.914062 C 251.316406 111.753906 251.222656 112.738281 251.128906 113.765625 C 251.082031 114.277344 251.035156 114.839844 251.035156 115.355469 C 250.988281 115.914062 250.988281 116.476562 250.988281 117.039062 C 250.988281 119.28125 251.082031 121.621094 251.691406 123.582031 C 251.96875 124.566406 252.390625 125.5 253 126.25 C 253.605469 127.042969 254.355469 127.699219 255.335938 128.210938 Z M 255.335938 128.210938 " fill-opacity="1" fill-rule="nonzero"/><path fill="#0e543d" d="M 247.621094 124.285156 C 245.984375 123.070312 243.882812 122.367188 241.777344 122.039062 C 240.75 121.855469 239.675781 121.808594 238.738281 121.808594 C 237.757812 121.808594 236.867188 121.855469 236.121094 121.902344 C 234.578125 122.039062 233.59375 122.273438 233.59375 122.273438 C 233.59375 122.273438 233.734375 122.414062 234.015625 122.695312 C 234.296875 122.976562 234.671875 123.351562 235.136719 123.816406 C 235.605469 124.285156 236.167969 124.800781 236.820312 125.359375 C 237.429688 125.921875 238.179688 126.484375 238.925781 127.042969 C 239.675781 127.605469 240.46875 128.117188 241.355469 128.585938 C 242.199219 129.054688 243.085938 129.476562 244.070312 129.707031 C 245.9375 130.269531 247.996094 130.363281 250.195312 129.382812 C 250.242188 128.304688 250.007812 127.324219 249.585938 126.484375 C 249.070312 125.59375 248.417969 124.894531 247.621094 124.285156 Z M 247.621094 124.285156 " fill-opacity="1" fill-rule="nonzero"/><path fill="#a9b8cc" d="M 196.109375 191.089844 L 196.03125 173.128906 C 202.875 167.367188 214.417969 169.894531 218.96875 174.535156 C 215.355469 171.65625 204.503906 168.5 197.457031 173.921875 L 196.109375 191.089844 " fill-opacity="1" fill-rule="nonzero"/><path fill="#a9b8cc" d="M 193.957031 191.089844 L 194.035156 173.128906 C 187.1875 167.367188 175.644531 169.894531 171.09375 174.535156 C 174.707031 171.65625 185.558594 168.5 192.605469 173.921875 L 193.957031 191.089844 " fill-opacity="1" fill-rule="nonzero"/><g clip-path="url(#8806f7e95e)"><path fill="#a9b8cc" d="M 196.125 200.816406 C 200.214844 197.941406 205.859375 197.492188 210.707031 198.71875 C 215.554688 199.949219 219.871094 202.75 223.65625 206.019531 L 220.402344 180.261719 L 222.394531 202.96875 C 222.394531 202.96875 216.773438 198.316406 209.144531 197.371094 C 199.976562 196.234375 196.125 200.816406 196.125 200.816406 " fill-opacity="1" fill-rule="nonzero"/></g><g clip-path="url(#c62f67b12a)"><path fill="#a9b8cc" d="M 193.9375 200.816406 C 189.847656 197.941406 184.203125 197.492188 179.355469 198.71875 C 174.507812 199.949219 170.191406 202.75 166.40625 206.019531 L 169.660156 180.261719 L 167.667969 202.96875 C 167.667969 202.96875 173.289062 198.316406 180.921875 197.371094 C 190.085938 196.234375 193.9375 200.816406 193.9375 200.816406 " fill-opacity="1" fill-rule="nonzero"/></g><g clip-path="url(#8a9dd38e5a)"><path fill="#46699f" d="M 207.195312 200.433594 C 201.410156 200.277344 197.460938 202.898438 195.839844 204.234375 C 195.371094 204.617188 194.695312 204.617188 194.226562 204.234375 C 192.601562 202.898438 188.652344 200.277344 182.867188 200.433594 C 175.675781 200.628906 169.597656 205.652344 167.640625 207.625 L 169.542969 207.625 C 172.039062 205.296875 176.921875 201.96875 182.988281 201.988281 C 187.175781 202.003906 190.359375 203.503906 192.398438 204.875 C 192.734375 205.105469 192.9375 205.484375 192.9375 205.890625 C 192.9375 206.566406 193.484375 207.117188 194.160156 207.117188 L 195.902344 207.117188 C 196.578125 207.117188 197.125 206.566406 197.125 205.890625 C 197.125 205.484375 197.328125 205.105469 197.667969 204.875 C 199.703125 203.503906 202.886719 202.003906 207.078125 201.988281 C 213.140625 201.96875 218.710938 205.398438 221.519531 207.625 L 222.421875 207.625 C 220.464844 205.652344 214.386719 200.628906 207.195312 200.433594 " fill-opacity="1" fill-rule="nonzero"/></g><g clip-path="url(#80ab91e1d4)"><path fill="#ffffff" d="M 232.820312 146.621094 L 196.847656 137.613281 C 195.640625 137.3125 194.382812 137.3125 193.199219 137.613281 L 157.199219 146.621094 C 156.570312 146.769531 156.570312 147.675781 157.199219 147.828125 L 174.886719 152.253906 C 184.898438 149.285156 195.664062 149.136719 205.902344 150.945312 C 195.539062 149.789062 184.621094 150.695312 174.886719 154.441406 L 174.886719 159.5 C 174.886719 159.925781 175.289062 160.203125 175.691406 160.078125 C 181.425781 158.316406 188.015625 157.285156 195.011719 157.285156 C 202.003906 157.285156 208.597656 158.316406 214.355469 160.078125 C 214.757812 160.203125 215.136719 159.925781 215.136719 159.5 L 215.136719 152.253906 L 222.859375 150.316406 L 222.859375 163.851562 L 222.734375 163.851562 C 222.457031 163.851562 222.230469 164.078125 222.230469 164.355469 L 222.230469 166.84375 C 222.230469 167.121094 222.457031 167.347656 222.734375 167.347656 L 224.242188 167.347656 C 224.519531 167.347656 224.746094 167.121094 224.746094 166.84375 L 224.746094 164.355469 C 224.746094 164.078125 224.519531 163.851562 224.242188 163.851562 L 224.117188 163.851562 L 224.117188 150.015625 L 232.820312 147.828125 C 233.476562 147.675781 233.476562 146.769531 232.820312 146.621094 Z M 232.820312 146.621094 " fill-opacity="1" fill-rule="nonzero"/></g><g fill="#ffffff" fill-opacity="1"><g transform="translate(144.689798, 270.888937)"><g><path d="M 0.328125 0 L 9.898438 0 C 7.796875 -0.328125 7.109375 -0.871094 7.109375 -2.320312 C 7.109375 -2.609375 7.144531 -2.902344 7.179688 -3.261719 L 9.390625 -18.746094 L 15.773438 -3.261719 L 19.074219 -3.261719 L 25.492188 -18.746094 L 27.703125 -3.261719 C 27.742188 -2.902344 27.777344 -2.609375 27.777344 -2.320312 C 27.777344 -0.871094 27.089844 -0.328125 24.984375 0 L 34.558594 0 C 32.308594 -0.433594 31.730469 -0.941406 31.402344 -3.261719 L 29.15625 -18.964844 C 29.082031 -19.546875 29.011719 -20.054688 29.011719 -20.488281 C 29.011719 -21.867188 29.589844 -22.445312 31.476562 -22.84375 L 24.152344 -22.84375 L 17.441406 -6.199219 L 10.769531 -22.84375 L 3.410156 -22.84375 C 5.292969 -22.445312 5.875 -21.867188 5.875 -20.488281 C 5.875 -20.054688 5.800781 -19.546875 5.730469 -18.964844 L 3.445312 -3.261719 C 3.117188 -0.941406 2.574219 -0.433594 0.328125 0 Z M 0.328125 0 "/></g></g></g><g fill="#ffffff" fill-opacity="1"><g transform="translate(179.533485, 270.888937)"><g><path d="M 0.328125 -0.6875 C 0.328125 -0.6875 1.703125 0.328125 5.800781 0.328125 C 9.429688 0.328125 11.675781 -1.667969 11.675781 -5.078125 L 11.675781 -18.964844 C 11.675781 -21.722656 12.183594 -22.230469 14.648438 -22.84375 L 5.003906 -22.84375 C 7.46875 -22.230469 7.976562 -21.722656 7.976562 -18.964844 L 7.976562 -5.691406 C 7.976562 -3.625 6.746094 -2.464844 4.460938 -2.464844 C 1.160156 -2.464844 0.328125 -4.53125 0.328125 -4.53125 Z M 0.328125 -0.6875 "/></g></g></g><g fill="#ffffff" fill-opacity="1"><g transform="translate(195.015543, 270.888937)"><g><path d="M 1.339844 -22.84375 C 3.808594 -22.230469 4.277344 -21.722656 4.277344 -18.964844 L 4.277344 -3.878906 C 4.277344 -1.125 3.808594 -0.617188 1.339844 0 L 10.953125 0 C 8.484375 -0.617188 8.015625 -1.125 8.015625 -3.878906 L 8.015625 -20.054688 L 17.332031 -20.054688 C 20.777344 -20.054688 22.375 -18.640625 22.375 -15.628906 C 22.375 -12.621094 20.777344 -11.167969 17.332031 -11.167969 L 12.691406 -11.167969 L 21.792969 0 L 28.03125 0 C 26.144531 -0.582031 25.203125 -1.449219 22.953125 -4.132812 L 19.292969 -8.414062 C 23.859375 -8.738281 26.074219 -11.058594 26.074219 -15.59375 C 26.074219 -20.488281 23.425781 -22.84375 18.058594 -22.84375 Z M 1.339844 -22.84375 "/></g></g></g><g fill="#ffffff" fill-opacity="1"><g transform="translate(223.477867, 270.888937)"><g><path d="M 1.339844 0 L 10.953125 0 C 8.484375 -0.617188 8.015625 -1.125 8.015625 -3.878906 L 8.015625 -8.375 L 18.058594 -8.375 C 23.425781 -8.375 26.074219 -10.699219 26.074219 -15.59375 C 26.074219 -20.488281 23.425781 -22.84375 18.058594 -22.84375 L 1.339844 -22.84375 C 3.808594 -22.230469 4.277344 -21.722656 4.277344 -18.964844 L 4.277344 -3.878906 C 4.277344 -1.125 3.808594 -0.617188 1.339844 0 Z M 8.015625 -11.167969 L 8.015625 -20.054688 L 17.332031 -20.054688 C 20.777344 -20.054688 22.375 -18.640625 22.375 -15.628906 C 22.375 -12.621094 20.777344 -11.167969 17.332031 -11.167969 Z M 8.015625 -11.167969 "/></g></g></g><g fill="#d9d9d9" fill-opacity="1"><g transform="translate(155.866766, 287.137188)"><g><path d="M 2.8125 -10.25 L 2.8125 -5.765625 L 7.640625 -5.765625 L 7.640625 -10.25 L 9.15625 -10.25 L 9.15625 0 L 7.640625 0 L 7.640625 -4.59375 L 2.8125 -4.59375 L 2.8125 0 L 1.3125 0 L 1.3125 -10.25 Z M 2.8125 -10.25 "/></g></g></g><g fill="#d9d9d9" fill-opacity="1"><g transform="translate(168.572818, 287.137188)"><g><path d="M 7.203125 -10.25 L 7.203125 -9.09375 L 2.8125 -9.09375 L 2.8125 -5.859375 L 6.03125 -5.859375 L 6.03125 -4.703125 L 2.8125 -4.703125 L 2.8125 -1.171875 L 7.703125 -1.171875 L 7.703125 0 L 1.3125 0 L 1.3125 -10.25 Z M 7.203125 -10.25 "/></g></g></g><g fill="#d9d9d9" fill-opacity="1"><g transform="translate(179.024613, 287.137188)"><g><path d="M 8.390625 -0.75 C 8.535156 -0.476562 8.671875 -0.226562 8.796875 0 L 7.09375 0 C 7.03125 -0.09375 6.957031 -0.234375 6.875 -0.421875 L 6.71875 -0.75 C 6.632812 -0.9375 6.503906 -1.265625 6.328125 -1.734375 C 6.140625 -2.234375 5.96875 -2.644531 5.8125 -2.96875 C 5.664062 -3.300781 5.488281 -3.597656 5.28125 -3.859375 C 5.082031 -4.117188 4.851562 -4.289062 4.59375 -4.375 C 4.332031 -4.363281 3.738281 -4.359375 2.8125 -4.359375 L 2.8125 0 L 1.3125 0 L 1.3125 -10.25 L 1.953125 -10.25 C 2.203125 -10.25 2.554688 -10.265625 3.015625 -10.296875 C 3.734375 -10.335938 4.253906 -10.359375 4.578125 -10.359375 C 5.671875 -10.359375 6.523438 -10.125 7.140625 -9.65625 C 7.753906 -9.1875 8.0625 -8.460938 8.0625 -7.484375 C 8.0625 -6.742188 7.898438 -6.132812 7.578125 -5.65625 C 7.253906 -5.175781 6.800781 -4.835938 6.21875 -4.640625 C 6.414062 -4.492188 6.601562 -4.289062 6.78125 -4.03125 C 6.957031 -3.78125 7.113281 -3.507812 7.25 -3.21875 C 7.394531 -2.925781 7.566406 -2.550781 7.765625 -2.09375 C 8.035156 -1.457031 8.242188 -1.007812 8.390625 -0.75 Z M 2.8125 -5.4375 C 3.050781 -5.40625 3.578125 -5.390625 4.390625 -5.390625 C 5.078125 -5.390625 5.601562 -5.550781 5.96875 -5.875 C 6.34375 -6.195312 6.53125 -6.707031 6.53125 -7.40625 C 6.53125 -7.832031 6.457031 -8.179688 6.3125 -8.453125 C 6.164062 -8.722656 5.929688 -8.921875 5.609375 -9.046875 C 5.296875 -9.179688 4.878906 -9.25 4.359375 -9.25 C 3.722656 -9.25 3.207031 -9.210938 2.8125 -9.140625 Z M 2.8125 -5.4375 "/></g></g></g><g fill="#d9d9d9" fill-opacity="1"><g transform="translate(190.485776, 287.137188)"><g><path d="M 2.921875 -10.25 L 2.921875 0 L 1.390625 0 L 1.390625 -10.25 Z M 2.921875 -10.25 "/></g></g></g><g fill="#d9d9d9" fill-opacity="1"><g transform="translate(197.054868, 287.137188)"><g><path d="M 0.421875 -9.09375 L 0.421875 -10.25 L 8.359375 -10.25 L 8.359375 -9.09375 L 5.140625 -9.09375 L 5.140625 0 L 3.625 0 L 3.625 -9.09375 Z M 0.421875 -9.09375 "/></g></g></g><g fill="#d9d9d9" fill-opacity="1"><g transform="translate(208.085369, 287.137188)"><g><path d="M 6.84375 -2.59375 L 2.640625 -2.59375 L 1.734375 0 L 0.140625 0 L 4.0625 -10.359375 L 5.515625 -10.359375 L 9.34375 0 L 7.71875 0 Z M 6.46875 -3.71875 L 5.09375 -7.8125 L 4.796875 -8.765625 L 4.5 -7.8125 L 3.046875 -3.71875 Z M 6.46875 -3.71875 "/></g></g></g><g fill="#d9d9d9" fill-opacity="1"><g transform="translate(219.8157, 287.137188)"><g><path d="M 8.875 -5.125 L 8.875 -0.640625 C 8.78125 -0.628906 8.679688 -0.609375 8.578125 -0.578125 C 8.484375 -0.546875 8.351562 -0.5 8.1875 -0.4375 C 7.769531 -0.269531 7.351562 -0.132812 6.9375 -0.03125 C 6.53125 0.0625 6.023438 0.109375 5.421875 0.109375 C 4.429688 0.109375 3.578125 -0.109375 2.859375 -0.546875 C 2.148438 -0.992188 1.609375 -1.609375 1.234375 -2.390625 C 0.859375 -3.179688 0.671875 -4.078125 0.671875 -5.078125 C 0.671875 -6.210938 0.875 -7.175781 1.28125 -7.96875 C 1.695312 -8.757812 2.265625 -9.351562 2.984375 -9.75 C 3.703125 -10.15625 4.515625 -10.359375 5.421875 -10.359375 C 5.929688 -10.359375 6.34375 -10.332031 6.65625 -10.28125 C 6.96875 -10.238281 7.304688 -10.175781 7.671875 -10.09375 C 7.929688 -10.03125 8.132812 -9.984375 8.28125 -9.953125 L 8.21875 -8.609375 C 7.84375 -8.804688 7.4375 -8.953125 7 -9.046875 C 6.570312 -9.140625 6.015625 -9.1875 5.328125 -9.1875 C 4.722656 -9.1875 4.1875 -9.03125 3.71875 -8.71875 C 3.25 -8.40625 2.878906 -7.953125 2.609375 -7.359375 C 2.347656 -6.765625 2.21875 -6.0625 2.21875 -5.25 C 2.21875 -4.4375 2.332031 -3.710938 2.5625 -3.078125 C 2.800781 -2.453125 3.160156 -1.953125 3.640625 -1.578125 C 4.117188 -1.210938 4.703125 -1.03125 5.390625 -1.03125 C 5.796875 -1.03125 6.1875 -1.0625 6.5625 -1.125 C 6.945312 -1.195312 7.234375 -1.296875 7.421875 -1.421875 L 7.421875 -3.96875 L 5.5625 -4.046875 L 5.5625 -5.125 Z M 8.875 -5.125 "/></g></g></g><g fill="#d9d9d9" fill-opacity="1"><g transform="translate(231.720988, 287.137188)"><g><path d="M 7.203125 -10.25 L 7.203125 -9.09375 L 2.8125 -9.09375 L 2.8125 -5.859375 L 6.03125 -5.859375 L 6.03125 -4.703125 L 2.8125 -4.703125 L 2.8125 -1.171875 L 7.703125 -1.171875 L 7.703125 0 L 1.3125 0 L 1.3125 -10.25 Z M 7.203125 -10.25 "/></g></g></g></svg>