<svg xmlns="http://www.w3.org/2000/svg" version="1.1" xmlns:xlink="http://www.w3.org/1999/xlink" xmlns:svgjs="http://svgjs.dev/svgjs" width="1440" height="560" preserveAspectRatio="none" viewBox="0 0 1440 560"><g mask="url(&quot;#SvgjsMask1103&quot;)" fill="none"><path d="M -1001.0961960934987,320 C -857.1,311.2 -569.1,272.4 -281.0961960934988,276 C 6.9,279.6 150.9,379 438.9038039065012,338 C 726.9,297 958.68,56 1158.9038039065013,71 C 1359.12,86 1383.78,344.6 1440,413" stroke="rgba(16, 61, 46, 0.61)" stroke-width="2"></path><path d="M -1091.735319732042,311 C -947.74,291.4 -659.74,178 -371.7353197320419,213 C -83.74,248 60.26,479 348.2646802679581,486 C 636.26,493 849.92,275.2 1068.264680267958,248 C 1286.61,220.8 1365.65,329.6 1440,350" stroke="rgba(16, 61, 46, 0.61)" stroke-width="2"></path><path d="M -842.743567831053,337 C -698.74,303.6 -410.74,155.6 -122.7435678310531,170 C 165.26,184.4 309.26,414.2 597.256432168947,409 C 885.26,403.8 1148.71,142.2 1317.256432168947,144 C 1485.81,145.8 1415.45,363.2 1440,418" stroke="rgba(16, 61, 46, 0.61)" stroke-width="2"></path></g><defs><mask id="SvgjsMask1103"><rect width="1440" height="560" fill="#ffffff"></rect></mask></defs></svg>